<?xml version="1.0" encoding="utf-8" standalone="no"?>
<!DOCTYPE svg PUBLIC "-//W3C//DTD SVG 1.1//EN" "http://www.w3.org/Graphics/SVG/1.1/DTD/svg11.dtd">
<svg version="1.1" xmlns="http://www.w3.org/2000/svg" xmlns:xlink="http://www.w3.org/1999/xlink" width="468pt" height="397pt" viewBox="0 0 468 397" xml:space="preserve" enable-background="new 0 0 468 397">
<g color-interpolation="linearRGB" transform="scale(0.24,0.24)">
<g>
	<rect x="0" y="0" width="1948.815" height="1653.54" fill="#FFFFFF" fill-opacity="0" />
</g>
<g id="Map_Frame">
<g id="lakes">
<clipPath id="cp_2">
<path d="M1948.815 1653.54 L1948.815 0 L0 4.5474735e-13 L0 1653.54 Z " />
</clipPath>
<g clip-path="url(#cp_2)">
<g transform="matrix(4.1666667 0 0 -4.1666667 974.4075 826.77)">
<path d="M-188.96916 135.23244 L-188.86945 134.60923 L-189.37425 134.5843 L-189.57367 134.39111 L-189.57991 134.16052 L-189.51759 133.64949 L-189.64223 133.18831 L-190.21558 132.26596 L-190.73284 131.77363 L-191.20648 131.51188 L-191.59911 131.40593 L-192.25971 131.42463 L-192.72712 131.63029 L-193.36902 132.19741 L-194.01716 132.83309 L-194.32253 133.11353 L-194.78371 133.32542 L-195.44431 133.33788 L-195.99274 133.20078 L-196.96494 133.22571 L-200.13085 134.39734 L-201.14668 134.31009 L-201.6951 134.16675 L-202.51151 134.19168 L-203.58343 134.95823 L-204.70521 135.1078 L-205.29726 134.96446 L-206.66832 134.49706 L-208.33792 134.02003 L-203.73341 138.9358 L-201.60786 138.87822 L-200.36767 138.69126 L-199.51387 138.47313 L-198.3547 138.05558 L-196.58478 137.27034 L-195.31344 136.76554 L-192.83306 136.39161 L-190.90111 135.83072 L-189.81049 135.72478 L-189.34932 135.55651 L-188.96916 135.23244 Z "  fill="#00C5FF" fill-rule="evenodd" stroke="#000000" fill-opacity="1" stroke-opacity="1"  stroke-width="0.4" stroke-linecap="round" stroke-linejoin="round" stroke-miterlimit="10" />
</g>
</g>
<g clip-path="url(#cp_2)">
<g transform="matrix(4.1666667 0 0 -4.1666667 974.4075 826.77)">
<path d="M134.27106 3.4609645 L133.52944 3.1929842 L133.26146 3.3861794 L133.03087 4.2025841 L133.61046 4.2025841 L134.23367 3.7725694 L134.27106 3.4609645 Z "  fill="#00C5FF" fill-rule="evenodd" stroke="#000000" fill-opacity="1" stroke-opacity="1"  stroke-width="0.4" stroke-linecap="round" stroke-linejoin="round" stroke-miterlimit="10" />
</g>
</g>
<g clip-path="url(#cp_2)">
<g transform="matrix(4.1666667 0 0 -4.1666667 974.4075 826.77)">
<path d="M1.0786653 -1.5309461 L1.5024478 -1.6181952 L2.3250849 -1.524714 L2.9046699 -1.5808028 L3.4904872 -1.6368916 L4.113697 -1.5745707 L4.5811044 -1.5870349 L5.1793857 -2.4595287 L5.2479388 -2.8521506 L5.896077 -3.4504322 L7.2422101 -4.1110345 L8.320363 -4.4101752 L9.4919974 -4.2855333 L10.937844 -4.3229258 L12.913419 -4.6469949 L13.299809 -4.7778689 L13.59895 -5.1330986 L13.935483 -5.7313799 L13.119078 -5.669059 L11.810338 -5.0520813 L11.037558 -4.9897604 L10.320866 -5.4010787 L9.8472269 -5.7376121 L8.8999482 -6.1053058 L8.4325409 -6.1676267 L6.407109 -6.2299479 L5.8212919 -6.1364664 L4.5374796 -6.1426985 L2.8984377 -6.3358934 L1.9636233 -6.3109652 L0.91663068 -6.1240021 L-0.16775437 -5.8248615 L-0.94053452 -5.7251478 L-3.0345194 -5.3574541 L-3.8072996 -4.9897604 L-4.723418 -4.2979975 L-4.8729883 -3.9863926 L-5.1908253 -2.7711333 L-5.4525733 -2.3722793 L-5.8763561 -2.1666199 L-6.2253534 -2.1167632 L-6.6802965 -1.7553016 L-6.3562277 -1.3377509 L-5.689393 -1.1196275 L-5.2967708 -0.85787933 L-5.2095217 -0.62729171 L-5.2282178 0.23273784 L-5.4775018 0.98058951 L-6.069551 2.1272955 L-6.0882473 2.8689151 L-5.5024302 3.1244311 L-4.7545783 3.2615372 L-4.0565833 3.1244311 L-2.7852355 2.6632559 L-1.9065096 2.0961349 L-1.3393888 1.454229 L-1.0402482 0.86217952 L-0.29239624 -0.28452646 L0.72966764 -1.3252867 L1.0786653 -1.5309461 Z "  fill="#00C5FF" fill-rule="evenodd" stroke="#000000" fill-opacity="1" stroke-opacity="1"  stroke-width="0.4" stroke-linecap="round" stroke-linejoin="round" stroke-miterlimit="10" />
</g>
</g>
<g clip-path="url(#cp_2)">
<g transform="matrix(4.1666667 0 0 -4.1666667 974.4075 826.77)">
<path d="M-18.047643 -0.010314019 L-17.661253 -0.060170959 L-16.682814 0.10809573 L-16.290192 0.28882665 L-15.623357 0.27636242 L-15.249431 -0.20350918 L-15.180878 -0.55873866 L-15.498715 -0.93889662 L-16.489619 -1.3813755 L-16.807456 -1.6805164 L-16.851081 -1.9173362 L-16.664118 -2.1915484 L-16.202942 -2.5156175 L-15.548572 -2.6527236 L-14.962755 -2.6651878 L-14.26476 -2.7649015 L-13.142982 -3.1014346 L-12.177007 -3.2883976 L-11.285817 -3.506521 L-10.81841 -3.5563777 L-11.148711 -4.1297308 L-11.422923 -4.3977109 L-12.2144 -4.6843876 L-12.993412 -4.8588862 L-13.691407 -4.7654049 L-15.000147 -4.0300172 L-15.579732 -3.8555184 L-17.281095 -3.5002889 L-17.792127 -3.4878247 L-18.496354 -3.7059481 L-19.119564 -3.6872519 L-20.048147 -3.5439135 L-20.958033 -3.9489999 L-22.67186 -5.4633999 L-26.012264 -6.4667676 L-26.909686 -6.5976416 L-27.844501 -6.6537304 L-28.779316 -6.5851774 L-29.203099 -6.3421255 L-29.215563 -5.482096 L-29.483543 -5.2078838 L-29.807612 -5.6628269 L-30.786051 -5.7937009 L-31.521439 -5.8123972 L-32.381468 -5.9495033 L-32.886268 -5.8186293 L-33.384836 -5.3761505 L-33.528174 -4.902511 L-33.422229 -4.0487136 L-33.216569 -3.6623235 L-32.661913 -3.2136125 L-32.032471 -2.9954891 L-31.097656 -2.8646149 L-29.340205 -2.870847 L-28.40539 -2.7773655 L-27.464343 -2.490689 L-25.619642 -2.0731386 L-24.011761 -1.5309461 L-22.796502 -1.3315188 L-21.818062 -1.2380373 L-21.151228 -1.0635387 L-20.758606 -0.83918322 L-20.160325 -0.26583011 L-19.52465 0.1828809 L-19.051011 0.36361182 L-18.702014 0.27636242 L-18.047643 -0.010314019 Z "  fill="#00C5FF" fill-rule="evenodd" stroke="#000000" fill-opacity="1" stroke-opacity="1"  stroke-width="0.4" stroke-linecap="round" stroke-linejoin="round" stroke-miterlimit="10" />
</g>
</g>
<g clip-path="url(#cp_2)">
<g transform="matrix(4.1666667 0 0 -4.1666667 974.4075 826.77)">
<path d="M138.297 -5.8622539 L137.98539 -6.0928415 L137.599 -6.0118243 L137.20638 -5.7002196 L137.05681 -5.3886147 L137.0942 -5.0396171 L136.81999 -4.33539 L136.2404 -3.4005753 L136.12823 -3.0079531 L136.16562 -2.6589557 L136.28403 -2.3847433 L137.21261 -3.2073804 L137.91061 -4.653227 L137.948 -5.0022246 L138.22221 -5.4322393 L138.297 -5.8622539 Z "  fill="#00C5FF" fill-rule="evenodd" stroke="#000000" fill-opacity="1" stroke-opacity="1"  stroke-width="0.4" stroke-linecap="round" stroke-linejoin="round" stroke-miterlimit="10" />
</g>
</g>
<g clip-path="url(#cp_2)">
<g transform="matrix(4.1666667 0 0 -4.1666667 974.4075 826.77)">
<path d="M-61.398116 -10.093849 L-61.871756 -10.274579 L-62.295539 -10.06892 L-63.174264 -9.613977 L-61.772042 -9.495567 L-60.880852 -9.5952807 L-61.398116 -10.093849 Z "  fill="#00C5FF" fill-rule="evenodd" stroke="#000000" fill-opacity="1" stroke-opacity="1"  stroke-width="0.4" stroke-linecap="round" stroke-linejoin="round" stroke-miterlimit="10" />
</g>
</g>
<g clip-path="url(#cp_2)">
<g transform="matrix(4.1666667 0 0 -4.1666667 974.4075 826.77)">
<path d="M83.660195 -20.64479 L84.090209 -20.651022 L84.906614 -20.49522 L86.583049 -20.538845 L87.711058 -20.931467 L88.103681 -21.205679 L88.452678 -21.673086 L88.490071 -22.296296 L88.215858 -22.607901 L87.904253 -22.452099 L87.823236 -22.215279 L87.785844 -21.828889 L87.630041 -21.517284 L87.324668 -21.199447 L86.545656 -20.925235 L84.987631 -20.962627 L83.778605 -21.193215 L82.881183 -21.074805 L81.634763 -20.800593 L80.076738 -20.713343 L79.104531 -20.675951 L78.443929 -20.831753 L77.509114 -21.137126 L76.767494 -21.292928 L75.521075 -21.330321 L74.70467 -21.324089 L74.548868 -21.168286 L74.742063 -21.012484 L75.521075 -20.975092 L75.795287 -21.018716 L76.493282 -20.900306 L77.278526 -20.551309 L78.288126 -20.245936 L78.954961 -19.934331 L79.459761 -19.896938 L80.58777 -20.096366 L81.678388 -20.214775 L82.33899 -20.407971 L83.273805 -20.451595 L83.660195 -20.64479 Z "  fill="#00C5FF" fill-rule="evenodd" stroke="#000000" fill-opacity="1" stroke-opacity="1"  stroke-width="0.4" stroke-linecap="round" stroke-linejoin="round" stroke-miterlimit="10" />
</g>
</g>
<g clip-path="url(#cp_2)">
<g transform="matrix(4.1666667 0 0 -4.1666667 974.4075 826.77)">
<path d="M7.2920668 -36.025608 L6.2326102 -36.349677 L6.3634842 -35.888502 L6.8371236 -35.433559 L8.4574691 -34.579761 L10.03419 -33.875534 L10.27101 -33.725964 L11.087414 -32.46708 L11.523661 -32.124315 L12.907187 -31.345302 L13.424451 -30.890359 L13.798377 -30.117579 L14.10375 -28.765214 L14.427819 -28.341431 L15.456115 -27.749382 L15.88613 -27.718221 L16.465715 -27.849095 L16.453251 -28.27911 L16.172806 -28.740286 L15.449883 -29.463209 L14.776816 -29.986705 L14.764352 -30.41672 L14.951315 -30.734557 L15.138278 -30.896591 L15.362634 -31.251821 L14.184767 -31.650675 L13.86693 -31.993441 L12.844866 -32.1991 L12.446012 -32.49824 L11.723088 -33.532769 L11.000165 -34.2183 L9.467069 -34.797885 L8.6382 -35.202971 L7.2920668 -36.025608 Z "  fill="#00C5FF" fill-rule="evenodd" stroke="#000000" fill-opacity="1" stroke-opacity="1"  stroke-width="0.4" stroke-linecap="round" stroke-linejoin="round" stroke-miterlimit="10" />
</g>
</g>
</g>
<!-- Begin_Label-->
<clipPath id="cp_3">
<path d="M1948.815 1653.54 L1948.815 0 L0 4.5474735e-13 L0 1653.54 Z " />
</clipPath>
<g clip-path="url(#cp_3)">
<g id="EmbdFile_1" transform="matrix(1 0 0 1 0 4.5474735e-13)">
<g>
<g color-interpolation="linearRGB" transform="scale(1,1)">
</g>
</g>
</g>
</g>
<!-- End_Label-->
</g>
</g>
</svg>
