<?xml version="1.0" encoding="utf-8" standalone="no"?>
<!DOCTYPE svg PUBLIC "-//W3C//DTD SVG 1.1//EN" "http://www.w3.org/Graphics/SVG/1.1/DTD/svg11.dtd">
<svg version="1.1" xmlns="http://www.w3.org/2000/svg" xmlns:xlink="http://www.w3.org/1999/xlink" width="468pt" height="397pt" viewBox="0 0 468 397" xml:space="preserve" enable-background="new 0 0 468 397">
<g color-interpolation="linearRGB" transform="scale(0.24,0.24)">
<g>
	<rect x="0" y="0" width="1948.815" height="1653.54" fill="#FFFFFF" fill-opacity="0" />
</g>
<g id="Map_Frame">
<g id="municipalities">
<clipPath id="cp_2">
<path d="M1948.815 1653.54 L1948.815 0 L0 4.5474735e-13 L0 1653.54 Z " />
</clipPath>
<g clip-path="url(#cp_2)">
<g transform="matrix(4.1666667 0 0 -4.1666667 974.4075 826.77)">
<path d="M-96.912023 177.86942 L-96.982244 177.69581 L-97.178754 176.38541 L-96.883459 176.29268 L-96.971852 174.48339 L-95.800138 173.96226 L-95.817061 172.29443 L-96.732385 172.10812 L-96.991306 171.54388 L-98.866533 172.14936 L-101.18732 172.92186 L-103.90887 173.88214 L-106.29988 174.6161 L-106.51398 174.42465 L-108.87944 174.26776 L-108.96753 171.78137 L-108.97792 170.38854 L-109.00027 169.10683 L-109.04115 167.08737 L-109.10402 164.47161 L-111.41119 164.51477 L-114.03674 164.55852 L-114.00672 165.22709 L-113.98449 166.03581 L-113.96175 166.5219 L-113.92885 167.16374 L-122.16638 167.31417 L-122.38433 167.30793 L-123.21028 167.28903 L-123.53874 167.28214 L-123.93903 167.30849 L-124.72267 167.34704 L-126.67266 167.44539 L-127.02603 167.39118 L-128.21146 167.21298 L-128.24849 168.34822 L-129.19044 168.39546 L-130.6128 168.47002 L-133.51814 168.29405 L-135.0066 168.34651 L-134.96762 171.2379 L-135.70218 171.29203 L-136.14798 171.29274 L-136.08199 175.75166 L-136.07875 176.26689 L-136.00797 176.53026 L-135.93192 176.71591 L-137.98228 177.14192 L-138.55385 177.22448 L-138.88333 177.25379 L-138.98799 177.64326 L-139.16847 178.9248 L-141.98558 179.07429 L-143.56286 179.14482 L-143.5402 181.51329 L-142.46599 181.53443 L-141.16489 181.56015 L-141.12056 182.31958 L-141.14477 183.02352 L-140.71713 182.83216 L-138.57558 182.29607 L-138.56257 182.96185 L-138.55394 183.40316 L-138.54184 184.02183 L-138.39178 184.08073 L-137.8348 183.24452 L-136.9997 182.40942 L-136.13343 181.90462 L-135.61617 181.59302 L-134.50686 180.82024 L-133.93974 180.34037 L-133.24797 179.81687 L-132.2633 178.96931 L-131.72111 178.64524 L-131.02935 178.38972 L-128.65492 178.29001 L-126.46122 178.70133 L-122.97748 179.50527 L-121.48177 180.04746 L-120.19173 180.3279 L-118.42181 180.86386 L-117.75498 181.00097 L-117.10684 181.03836 L-116.39015 181.08199 L-115.1001 181.20663 L-114.51429 181.38113 L-112.86901 181.61171 L-111.35461 181.41852 L-108.06406 180.86386 L-106.81764 180.78908 L-104.91062 180.58342 L-103.83247 180.32167 L-102.74809 179.90412 L-100.77874 179.34323 L-98.117639 178.26508 L-96.912023 177.86942 Z "  fill="#80B1D3" fill-rule="evenodd" stroke="#6E6E6E" fill-opacity="1" stroke-opacity="1"  stroke-width="0.7" stroke-linecap="round" stroke-linejoin="round" stroke-miterlimit="10" />
</g>
</g>
<g clip-path="url(#cp_2)">
<g transform="matrix(4.1666667 0 0 -4.1666667 974.4075 826.77)">
<path d="M-55.220617 156.70382 L-55.267097 156.45814 L-55.728105 155.56441 L-55.709296 155.04849 L-55.45255 154.69829 L-55.010591 154.4766 L-54.371405 154.26472 L-53.482209 153.61095 L-53.369987 153.40426 L-52.940936 152.63534 L-52.530453 151.35946 L-52.428247 150.44296 L-52.317531 150.14655 L-52.112617 149.90121 L-52.180292 148.98482 L-53.493584 148.90044 L-54.018465 148.82068 L-54.02533 147.62051 L-54.031286 146.84583 L-54.067505 144.721 L-52.844796 144.77156 L-52.838937 145.00951 L-52.861133 145.34287 L-49.462767 145.34345 L-48.549829 145.33842 L-48.521836 145.97654 L-48.513614 148.59237 L-48.493607 148.88287 L-48.012043 155.7126 L-48.009673 156.26904 L-47.694848 156.88743 L-47.420823 157.15516 L-47.208215 157.27285 L-46.645785 157.21071 L-46.185017 156.86754 L-45.928375 156.50633 L-45.548525 156.30659 L-45.250237 156.15882 L-45.078277 156.09495 L-44.942084 155.78913 L-44.846786 155.47568 L-44.644562 155.37942 L-44.435091 155.31007 L-44.144244 155.23105 L-43.911514 155.19804 L-43.656742 155.14214 L-43.051709 155.14691 L-42.858842 154.78199 L-42.938642 152.88174 L-42.489931 149.36061 L-42.203255 148.33855 L-41.856329 147.35758 L-42.61604 146.90194 L-42.561044 146.66817 L-42.420239 146.41773 L-42.306228 146.1906 L-42.122564 145.82024 L-42.011988 145.60426 L-41.817959 145.42015 L-41.187293 144.68268 L-40.607099 144.42284 L-40.33565 144.12518 L-40.257328 143.84876 L-40.056288 143.67632 L-39.884555 143.59446 L-39.638101 143.45523 L-39.24945 143.3379 L-38.363669 142.56713 L-37.373342 142.03237 L-36.676405 141.73047 L-36.136831 141.74997 L-36.202053 140.70947 L-35.773772 140.68438 L-33.995259 140.78466 L-33.981658 140.56476 L-33.984826 140.37216 L-33.985977 138.41551 L-34.004896 137.66497 L-36.388149 137.61972 L-37.834527 137.64919 L-38.638661 137.6542 L-39.198707 137.66142 L-43.279497 137.72388 L-43.761398 137.72917 L-44.041607 137.73524 L-44.179013 137.17552 L-44.75897 137.21227 L-44.560902 137.49689 L-44.532663 137.92434 L-45.004655 138.23648 L-45.568663 138.41227 L-45.820676 138.46432 L-46.078984 138.51925 L-47.096848 138.62854 L-47.709096 138.81834 L-48.763188 139.46537 L-49.100119 139.80162 L-50.4196 140.69643 L-51.049345 141.26774 L-51.50764 141.76685 L-51.799526 142.29779 L-52.077041 142.8472 L-52.283535 143.52223 L-54.305441 143.54902 L-55.511943 143.5613 L-55.544124 144.70115 L-59.465816 144.81344 L-59.466513 146.98534 L-59.516553 148.1061 L-59.487896 148.56022 L-61.540777 148.58729 L-62.750267 148.5918 L-62.726355 145.18985 L-60.380394 145.10177 L-60.293646 142.31622 L-61.009929 142.27313 L-62.020838 142.40978 L-62.532321 142.62721 L-63.044058 142.62012 L-64.312644 143.13137 L-64.788092 143.7266 L-65.301789 143.60592 L-66.148677 143.99903 L-67.186559 144.17026 L-68.030875 144.31943 L-68.036872 143.9758 L-69.261803 144.10046 L-70.589881 144.28622 L-70.417183 144.85805 L-70.16238 145.79747 L-70.929681 145.81369 L-72.410748 145.72119 L-72.621713 145.70619 L-75.587998 147.08285 L-76.427944 147.47332 L-79.03554 147.60135 L-80.434429 147.66853 L-80.435953 147.96447 L-80.421731 151.68644 L-80.422836 152.38711 L-79.116359 152.48409 L-79.083347 153.06668 L-79.071109 153.57653 L-79.074096 153.99447 L-79.06805 154.51274 L-79.433482 154.57191 L-80.105794 154.67121 L-80.331082 155.01896 L-81.430641 156.73787 L-81.197389 157.21813 L-80.870552 157.51099 L-80.468254 157.97161 L-79.709626 158.85694 L-79.402089 159.44123 L-80.126631 159.70501 L-80.752076 160.28028 L-80.806524 160.9223 L-81.1414 161.11608 L-81.057283 162.35232 L-80.369107 162.34997 L-81.151115 163.67976 L-81.129632 163.81763 L-81.415228 164.37265 L-81.302199 164.89456 L-81.288109 165.4806 L-81.364988 165.93036 L-82.332451 166.0232 L-82.722515 166.02741 L-83.268143 166.81476 L-83.396683 166.97022 L-83.041454 167.13295 L-82.532743 167.36987 L-81.864351 167.64829 L-81.533666 167.80663 L-80.443938 167.86895 L-80.526761 168.6584 L-80.257795 169.01328 L-80.083929 169.2123 L-79.608306 168.9107 L-79.134667 168.60533 L-77.832158 167.86994 L-76.947199 167.29659 L-75.55121 165.78219 L-74.367112 164.81621 L-73.637956 164.33011 L-73.101997 164.04343 L-72.304287 163.16471 L-72.01138 162.64744 L-71.400635 160.64694 L-70.883371 159.61864 L-70.391032 158.98297 L-69.0449 156.88275 L-68.440387 156.24084 L-68.060228 155.84199 L-67.68007 155.59894 L-66.240457 155.40574 L-64.987805 155.68619 L-63.866027 156.86405 L-63.660368 157.40002 L-63.485868 158.02323 L-63.236586 158.55918 L-62.993532 158.86456 L-62.364092 159.23848 L-61.26101 159.63734 L-59.977198 159.60618 L-59.235579 159.66227 L-58.724546 159.76821 L-58.026551 159.74952 L-57.870749 159.58748 L-57.66509 158.68383 L-57.284931 158.32237 L-56.237939 158.21642 L-56.007353 157.94221 L-55.652123 156.76434 L-55.220617 156.70382 Z "  fill="#FB8072" fill-rule="evenodd" stroke="#6E6E6E" fill-opacity="1" stroke-opacity="1"  stroke-width="0.7" stroke-linecap="round" stroke-linejoin="round" stroke-miterlimit="10" />
</g>
</g>
<g clip-path="url(#cp_2)">
<g transform="matrix(4.1666667 0 0 -4.1666667 974.4075 826.77)">
<path d="M39.374908 118.16896 L39.589915 118.10664 L40.191312 118.15026 L40.658719 118.01939 L40.883076 117.73894 L40.914234 117.47096 L40.71481 117.27777 L40.21624 117.44603 L39.898403 117.37748 L39.652236 116.76051 L39.032141 116.935 L38.147183 117.42734 L37.795071 117.80438 L37.816882 118.17519 L38.290521 118.23751 L39.374908 118.16896 Z M29.085713 117.85735 L29.032741 117.35255 L28.456272 117.63923 L27.642984 117.73583 L27.334493 117.982 L27.078978 118.53665 L27.166226 118.88253 L28.830198 118.41201 L29.085713 117.85735 Z M25.072243 120.73035 L24.891512 120.59636 L24.530049 120.86123 L24.579908 121.24762 L24.779334 121.40342 L25.050429 121.35668 L25.196884 120.96094 L25.072243 120.73035 Z M29.484568 122.63737 L29.964439 121.57792 L30.375756 121.01703 L30.329017 120.74905 L29.833565 121.07312 L29.116874 121.90822 L28.83643 121.64647 L28.661933 121.71814 L28.456272 122.00793 L28.468736 122.43171 L28.942374 122.61868 L29.291373 122.76202 L29.484568 122.63737 Z M25.539651 125.23616 L25.147027 125.09282 L24.530049 125.1863 L24.265187 125.50725 L24.542514 125.6911 L24.891512 125.72226 L25.128331 125.67864 L25.508488 125.47298 L25.539651 125.23616 Z M31.678267 127.45478 L31.285644 127.42362 L31.017665 127.62305 L31.023895 127.89726 L31.229554 128.16524 L31.690731 128.07799 L31.846533 127.87857 L31.877691 127.64175 L31.678267 127.45478 Z M34.074507 127.52645 L33.815876 127.24289 L33.080488 127.57319 L32.781347 127.89103 L32.787579 128.16524 L33.14281 128.3896 L33.417021 128.45815 L33.6071 128.31793 L33.915589 128.05306 L34.074507 127.52645 Z M36.296251 128.42076 L35.828843 128.39583 L35.598256 128.47685 L35.573328 128.90686 L35.897397 129.36804 L36.290018 129.47398 L36.626552 129.15615 L36.657712 128.76353 L36.495679 128.53294 L36.296251 128.42076 Z M34.962583 129.39297 L34.569959 129.34623 L34.420388 129.59863 L34.470247 129.94762 L34.707066 130.09719 L35.01867 130.09408 L35.124615 129.73573 L34.962583 129.39297 Z M37.237296 131.5929 L36.95997 131.42463 L36.657712 131.72377 L36.782354 131.95436 L37.056566 131.94813 L37.206138 131.82349 L37.237296 131.5929 Z M43.537948 129.59239 L43.301128 129.48022 L42.945899 129.49268 L42.447332 129.69834 L41.687015 130.34648 L40.733504 131.2252 L40.66495 131.53681 L40.752202 131.84841 L41.070037 132.07277 L41.574837 131.98552 L42.148191 131.58044 L42.462912 131.06628 L42.671686 130.74533 L43.425771 129.98502 L43.537948 129.59239 Z M38.801554 131.70507 L38.564734 131.5929 L38.215737 131.64276 L38.14095 131.87958 L38.306102 132.14755 L38.692492 132.10081 L38.801554 131.70507 Z M37.302736 132.5059 L37.106424 132.41553 L36.959968 132.56822 L37.112656 132.80192 L37.30585 132.72091 L37.302736 132.5059 Z M39.714556 132.38438 L39.399835 132.31582 L38.93866 132.63989 L38.951124 132.90787 L39.337515 132.90164 L39.723904 132.69598 L39.714556 132.38438 Z M38.814018 133.65572 L38.452556 133.27557 L37.050335 133.38774 L36.74496 133.63079 L36.68264 134.14183 L36.495679 134.45343 L36.508144 134.76504 L36.663946 134.92084 L36.900763 134.98939 L37.36817 134.90214 L37.586295 134.78996 L38.477484 134.32256 L38.782857 133.96733 L38.814018 133.65572 Z M16.820943 137.19555 L16.621518 136.96497 L16.116716 136.98366 L15.773952 137.22671 L15.780183 137.49469 L16.054397 137.68166 L16.671374 137.43238 L16.820943 137.19555 Z M8.2455778 139.91898 L8.0087571 139.8068 L7.622368 139.89405 L6.8932124 140.34277 L6.4008775 140.86003 L6.4133421 141.29004 L6.8059635 141.43338 L7.3917807 141.3399 L7.8529552 141.17163 L8.0025271 141.05322 L8.3826828 140.49857 L8.407612 140.10594 L8.2455778 139.91898 Z M16.244477 141.80731 L15.269152 141.79484 L15.038565 141.95688 L15.085306 142.26848 L15.440536 142.39624 L15.904826 142.32457 L16.247591 142.08152 L16.244477 141.80731 Z M14.57739 142.16253 L14.340569 142.09398 L14.191001 142.29341 L14.315641 142.524 L14.62413 142.43675 L14.57739 142.16253 Z M17.967651 142.1937 L17.730831 142.08152 L17.151246 142.175 L16.571661 142.42428 L16.577893 142.61748 L16.858337 142.88546 L17.475315 142.74835 L17.895983 142.4087 L17.967651 142.1937 Z M7.4665649 145.82078 L7.2671414 145.75846 L7.0427831 145.94542 L7.0178539 146.33804 L7.1362642 146.56863 L7.4478703 146.5624 L7.6036711 146.43776 L7.6286003 146.01397 L7.4665649 145.82078 Z M3.9205015 147.2417 L4.4876218 146.44399 L4.5187833 146.09499 L4.3131253 145.7086 L4.1822503 145.2038 L3.8270193 145.09785 L3.3658447 145.26612 L2.7924922 145.63381 L2.1350064 145.75846 L1.4837517 146.28818 L1.1846125 146.72443 L1.1908426 146.92386 L1.5024475 147.0672 L1.7766609 147.06097 L2.16305 146.97372 L2.5556726 147.04227 L3.0293129 147.3788 L3.5777362 147.40373 L3.9205015 147.2417 Z M-20.627731 152.63869 L-20.939337 152.57014 L-21.444136 152.78203 L-21.980097 153.14349 L-22.622002 153.82279 L-22.952305 154.61427 L-23.556818 155.33096 L-23.619139 155.95417 L-23.251445 156.56491 L-22.933607 156.83289 L-22.422576 156.82043 L-22.042418 156.53375 L-21.786903 155.98533 L-21.718349 155.55531 L-21.811831 155.08791 L-21.824296 154.6205 L-21.712117 154.34629 L-21.406744 154.06584 L-20.671357 153.92874 L-20.284966 153.72308 L-20.216414 153.48626 L-20.627731 152.63869 Z M-50.18034 160.27924 L-49.874968 160.03619 L-48.765653 159.38805 L-48.186068 159.10761 L-47.263718 158.64644 L-46.035994 157.94844 L-45.537427 157.74278 L-44.259847 157.35639 L-43.723887 157.10711 L-43.418513 156.82666 L-43.013426 155.9604 L-42.838929 155.25617 L-42.858842 154.78199 L-43.051709 155.14691 L-43.656742 155.14214 L-43.911514 155.19804 L-44.144244 155.23105 L-44.435091 155.31007 L-44.644562 155.37942 L-44.846786 155.47568 L-44.942084 155.78913 L-45.078277 156.09495 L-45.250237 156.15882 L-45.548525 156.30659 L-45.928375 156.50633 L-46.185017 156.86754 L-46.645785 157.21071 L-47.208215 157.27285 L-47.420823 157.15516 L-47.694848 156.88743 L-48.009673 156.26904 L-48.012043 155.7126 L-48.493607 148.88287 L-48.513614 148.59237 L-48.521836 145.97654 L-48.549829 145.33842 L-49.462767 145.34345 L-52.861133 145.34287 L-52.838937 145.00951 L-52.844796 144.77156 L-54.067505 144.721 L-54.031286 146.84583 L-54.02533 147.62051 L-54.018465 148.82068 L-53.493584 148.90044 L-52.180292 148.98482 L-52.112617 149.90121 L-52.317531 150.14655 L-52.428247 150.44296 L-52.530453 151.35946 L-52.940936 152.63534 L-53.369987 153.40426 L-53.482209 153.61095 L-54.371405 154.26472 L-55.010591 154.4766 L-55.45255 154.69829 L-55.709296 155.04849 L-55.728105 155.56441 L-55.267097 156.45814 L-55.220617 156.70382 L-55.170662 156.82819 L-55.01645 157.05725 L-55.041377 157.71785 L-55.303124 158.1541 L-55.870246 158.79601 L-56.331421 158.96427 L-56.562009 159.20109 L-56.474759 159.35689 L-55.969959 159.38182 L-55.352982 159.28834 L-53.607993 158.85209 L-53.445959 159.08268 L-53.240301 159.58125 L-53.308853 159.89285 L-53.651619 160.09851 L-54.156418 160.19199 L-54.779628 160.12967 L-55.483857 160.18576 L-55.714444 160.27301 L-55.826621 160.42881 L-55.627193 160.6968 L-55.116162 160.84013 L-52.772893 161.08942 L-51.526473 161.05826 L-51.221101 160.88376 L-50.18034 160.27924 Z M-152.15616 186.58493 L-150.75394 186.51014 L-150.20551 186.65348 L-149.93753 186.56623 L-148.31719 187.45742 L-146.67814 187.61323 L-145.39433 187.45742 L-144.42213 187.3951 L-144.0669 187.58207 L-143.61818 188.2676 L-143.30035 188.57297 L-142.87033 188.64152 L-142.63974 188.51688 L-142.49017 188.28006 L-142.26582 188.03701 L-141.33724 187.78149 L-140.43981 186.43536 L-138.39178 184.08073 L-138.54184 184.02183 L-138.55394 183.40316 L-138.56257 182.96185 L-138.57558 182.29607 L-140.71713 182.83216 L-141.14477 183.02352 L-141.12056 182.31958 L-141.16489 181.56015 L-142.46599 181.53443 L-143.5402 181.51329 L-143.56286 179.14482 L-141.98558 179.07429 L-139.16847 178.9248 L-138.98799 177.64326 L-138.88333 177.25379 L-138.55385 177.22448 L-137.98228 177.14192 L-135.93192 176.71591 L-136.00797 176.53026 L-136.07875 176.26689 L-136.08199 175.75166 L-136.14798 171.29274 L-135.70218 171.29203 L-134.96762 171.2379 L-135.0066 168.34651 L-133.51814 168.29405 L-130.6128 168.47002 L-129.19044 168.39546 L-128.24849 168.34822 L-128.21146 167.21298 L-127.02603 167.39118 L-126.67266 167.44539 L-124.72267 167.34704 L-123.93903 167.30849 L-123.53874 167.28214 L-123.21028 167.28903 L-122.38433 167.30793 L-122.16638 167.31417 L-113.92885 167.16374 L-113.96175 166.5219 L-113.98449 166.03581 L-114.00672 165.22709 L-114.03674 164.55852 L-111.41119 164.51477 L-109.10402 164.47161 L-109.04115 167.08737 L-109.00027 169.10683 L-108.97792 170.38854 L-108.96753 171.78137 L-108.87944 174.26776 L-106.51398 174.42465 L-106.29988 174.6161 L-103.90887 173.88214 L-101.18732 172.92186 L-98.866533 172.14936 L-96.991306 171.54388 L-96.732385 172.10812 L-95.817061 172.29443 L-95.800138 173.96226 L-96.971852 174.48339 L-96.883459 176.29268 L-97.178754 176.38541 L-96.982244 177.69581 L-96.912023 177.86942 L-94.490556 177.07475 L-91.816988 176.61357 L-90.445927 176.88778 L-89.585895 176.98127 L-88.651082 176.84416 L-87.34234 176.30197 L-86.762755 176.20849 L-86.532168 176.08384 L-86.501006 175.69745 L-86.71913 174.99946 L-87.005807 174.26407 L-86.120849 174.04595 L-85.965046 173.92754 L-85.983742 173.30433 L-85.559959 173.17345 L-85.223427 173.23266 L-83.958311 173.97116 L-83.914687 173.48506 L-84.051791 173.08621 L-84.207594 172.67489 L-84.768484 172.10153 L-84.967912 171.79616 L-85.017768 171.40977 L-84.955449 171.01715 L-84.575288 170.5809 L-84.344701 170.49365 L-83.871061 170.56221 L-83.098281 170.53728 L-82.774213 170.48119 L-82.356661 170.4064 L-81.627507 170.1135 L-80.399784 169.4155 L-80.083929 169.2123 L-80.257795 169.01328 L-80.526761 168.6584 L-80.443938 167.86895 L-81.533666 167.80663 L-81.864351 167.64829 L-82.532743 167.36987 L-83.041454 167.13295 L-83.396683 166.97022 L-83.268143 166.81476 L-82.722515 166.02741 L-82.332451 166.0232 L-81.364988 165.93036 L-81.288109 165.4806 L-81.302199 164.89456 L-81.415228 164.37265 L-81.129632 163.81763 L-81.151115 163.67976 L-80.369107 162.34997 L-81.057283 162.35232 L-81.1414 161.11608 L-80.806524 160.9223 L-80.752076 160.28028 L-80.126631 159.70501 L-79.402089 159.44123 L-79.709626 158.85694 L-80.468254 157.97161 L-80.870552 157.51099 L-81.197389 157.21813 L-81.430641 156.73787 L-80.331082 155.01896 L-80.105794 154.67121 L-79.433482 154.57191 L-79.06805 154.51274 L-79.074096 153.99447 L-79.071109 153.57653 L-79.083347 153.06668 L-79.116359 152.48409 L-80.422836 152.38711 L-80.421731 151.68644 L-80.435953 147.96447 L-80.434429 147.66853 L-79.03554 147.60135 L-76.427944 147.47332 L-75.587998 147.08285 L-72.621713 145.70619 L-72.410748 145.72119 L-70.929681 145.81369 L-70.16238 145.79747 L-70.417183 144.85805 L-70.589881 144.28622 L-69.261803 144.10046 L-68.036872 143.9758 L-68.030875 144.31943 L-67.186559 144.17026 L-66.148677 143.99903 L-65.301789 143.60592 L-64.788092 143.7266 L-64.312644 143.13137 L-63.044058 142.62012 L-62.532321 142.62721 L-62.020838 142.40978 L-61.009929 142.27313 L-60.293646 142.31622 L-60.380394 145.10177 L-62.726355 145.18985 L-62.750267 148.5918 L-61.540777 148.58729 L-59.487896 148.56022 L-59.516553 148.1061 L-59.466513 146.98534 L-59.465816 144.81344 L-55.544124 144.70115 L-55.511943 143.5613 L-54.305441 143.54902 L-52.283535 143.52223 L-52.077041 142.8472 L-51.799526 142.29779 L-51.50764 141.76685 L-51.049345 141.26774 L-50.4196 140.69643 L-49.100119 139.80162 L-48.763188 139.46537 L-47.709096 138.81834 L-47.096848 138.62854 L-46.078984 138.51925 L-45.820676 138.46432 L-45.568663 138.41227 L-45.004655 138.23648 L-44.532663 137.92434 L-44.560902 137.49689 L-44.75897 137.21227 L-44.179013 137.17552 L-44.041607 137.73524 L-43.761398 137.72917 L-43.279497 137.72388 L-39.198707 137.66142 L-38.638661 137.6542 L-37.834527 137.64919 L-36.388149 137.61972 L-34.004896 137.66497 L-33.985977 138.41551 L-33.984826 140.37216 L-33.981658 140.56476 L-33.995259 140.78466 L-35.773772 140.68438 L-36.202053 140.70947 L-36.136831 141.74997 L-36.676405 141.73047 L-37.373342 142.03237 L-38.363669 142.56713 L-39.24945 143.3379 L-39.638101 143.45523 L-39.884555 143.59446 L-40.056288 143.67632 L-40.257328 143.84876 L-40.33565 144.12518 L-40.607099 144.42284 L-41.187293 144.68268 L-41.817959 145.42015 L-42.011988 145.60426 L-42.122564 145.82024 L-42.306228 146.1906 L-42.420239 146.41773 L-42.561044 146.66817 L-42.61604 146.90194 L-41.856329 147.35758 L-41.661062 146.80545 L-41.212351 146.0576 L-39.087206 143.93245 L-38.245872 143.20953 L-37.448165 142.64241 L-36.2516 142.22486 L-35.435196 142.08152 L-34.269794 142.05659 L-33.677745 142.15631 L-32.736697 142.56139 L-32.381468 142.58632 L-32.231898 142.38689 L-32.101024 141.57049 L-31.602458 141.08438 L-31.328245 141.23395 L-31.128816 141.42715 L-31.147514 142.08775 L-31.783188 143.15967 L-31.932757 143.47128 L-31.882901 143.74549 L-31.334474 143.96361 L-30.973013 144.26275 L-31.004175 144.61798 L-31.415493 145.21003 L-32.219434 145.77715 L-32.786554 146.37543 L-33.16048 147.0485 L-33.222801 147.59692 L-32.967284 147.93969 L-32.163345 147.92099 L-31.857973 147.71534 L-31.097655 146.99864 L-30.194002 145.92049 L-29.739058 145.44062 L-29.05976 144.48711 L-28.268284 143.64577 L-27.352166 142.88546 L-26.242852 142.07529 L-24.9902 140.75408 L-24.63497 139.89405 L-24.441777 139.42041 L-24.105243 139.05895 L-23.637835 138.89068 L-23.095644 138.87822 L-22.933607 139.02779 L-22.734183 139.37056 L-22.628236 140.30537 L-22.391415 140.52973 L-21.917777 140.59828 L-21.144995 140.49857 L-20.334824 140.24305 L-19.873649 140.03739 L-19.605668 139.63854 L-19.474793 138.8159 L-19.25667 138.26747 L-18.876513 137.83123 L-18.265767 137.30773 L-17.929234 136.94627 L-17.854449 136.70945 L-17.941698 136.40408 L-17.997789 135.85565 L-17.586467 135.1078 L-17.131524 134.62793 L-16.707742 134.42227 L-16.121924 134.40357 L-15.42393 134.50329 L-14.32085 134.86475 L-13.766192 135.31969 L-13.361106 135.84942 L-13.030804 136.58481 L-12.856306 137.2828 L-12.875002 137.9808 L-13.061966 138.33603 L-13.778657 139.05895 L-13.921995 139.64477 L-14.482883 140.44248 L-14.894202 141.15294 L-15.199576 141.50817 L-15.959892 142.1937 L-16.171782 142.89792 L-16.508315 143.3404 L-17.306024 144.1755 L-17.985324 145.09162 L-18.36548 145.40946 L-19.717847 147.27909 L-20.14786 147.32894 L-20.372216 147.49098 L-20.347289 148.5442 L-20.683822 149.09886 L-20.640196 149.29206 L-20.322357 149.36061 L-19.543347 149.34191 L-18.888977 149.049 L-18.35925 148.56913 L-17.380808 147.37257 L-16.73267 146.81168 L-15.081164 145.87063 L-14.015476 144.98568 L-13.672712 144.54943 L-13.07443 143.22511 L-12.937321 143.0101 L-12.444988 142.56762 L-11.672207 142.27471 L-11.491476 141.76368 L-11.223495 141.48324 L-10.724928 141.31497 L-10.139112 141.37729 L-9.8742484 141.64215 L-9.9646117 142.07529 L-9.9521471 142.42428 L-9.590686 142.80444 L-9.3912592 143.14721 L-9.3351707 143.80781 L-9.1731342 144.0384 L-8.8615305 144.03217 L-8.2507852 143.47128 L-7.8207722 143.42142 L-7.5091661 143.60838 L-7.4219173 143.95738 L-7.7584503 144.35 L-8.7555858 145.04177 L-9.09212 145.5154 L-9.1980623 145.98904 L-9.1045846 146.53124 L-8.898922 146.91763 L-8.6994974 147.0672 L-8.3878913 147.01734 L-7.8581637 146.53747 L-7.6275754 146.49384 L-7.4001037 146.97371 L-7.1850955 146.83038 L-7.1664008 146.08876 L-7.0230613 145.69613 L-6.7176887 145.45308 L-6.1318726 145.55903 L-5.7454812 145.39076 L-5.2905378 144.83611 L-5.022559 144.66784 L-4.4429753 144.61798 L-4.0628151 144.21913 L-3.7699082 143.62085 L-3.7387467 143.27185 L-3.8945485 143.12228 L-4.5613845 143.09735 L-4.6050072 142.90416 L-4.0067255 141.99427 L-3.5455521 141.63281 L-2.8849495 141.6889 L-2.5795758 141.68266 L-2.38015 141.67643 L-2.1059367 141.55179 L-1.844189 141.27135 L-1.6946172 140.95974 L-1.6883871 139.86912 L-1.507656 139.27708 L-1.2396738 139.15243 L-0.69125159 139.10257 L-0.49182358 139.37056 L-0.25500288 139.52013 L0.15631548 138.92184 L0.98518338 136.21088 L1.1409864 134.80866 L1.8639086 134.08574 L2.3001561 134.42227 L2.7675641 134.45343 L3.1539533 134.28516 L3.9454296 133.33165 L4.5187833 132.84555 L5.2105451 132.63366 L5.9334706 131.87334 L6.4008775 131.86088 L7.0677123 132.15378 L7.310763 132.38438 L7.8342606 133.15092 L8.3515247 133.44383 L8.7005223 133.4376 L9.0806769 133.23194 L9.3860518 132.98889 L9.7786744 132.93903 L10.445507 133.19455 L10.757113 133.18831 L11.25568 132.98266 L12.215423 132.4093 L12.745152 131.69261 L13.904323 131.46826 L14.490142 131.45579 L14.963779 131.79232 L15.156973 131.63029 L15.674239 130.68301 L15.742791 130.253 L15.580758 129.94139 L15.032333 129.91646 L14.564925 129.85414 L14.321874 129.54877 L14.272016 129.08136 L14.490142 128.60772 L14.87653 128.32728 L16.035701 128.17771 L16.577893 128.00944 L17.113854 127.64175 L17.381833 127.3613 L17.475315 126.50127 L17.899097 126.25822 L18.360274 126.12735 L18.703038 125.8843 L19.376104 124.73759 L19.912065 124.45091 L20.996452 124.15177 L21.725606 123.85886 L22.180548 123.3416 L22.21171 122.91158 L22.024745 121.93938 L22.217942 121.73995 L22.722743 121.60908 L22.909704 121.45327 L23.165219 120.89862 L23.152755 120.35019 L22.872311 120.12584 L22.716509 119.93887 L22.579404 119.35306 L22.641724 118.76724 L22.828685 118.45564 L23.177685 118.32476 L24.311927 118.41201 L24.897744 118.59274 L25.801397 118.72362 L26.181555 118.51796 L26.443304 118.16273 L26.511857 117.6143 L25.988359 117.08457 L24.536282 116.65456 L22.816221 116.31179 L21.949961 116.17469 L21.594731 115.99396 L21.233269 115.53278 L20.990217 115.109 L20.666149 114.77246 L18.129684 114.4484 L16.48441 114.18042 L14.539997 114.23027 L13.106613 114.61666 L12.171799 114.64159 L11.623375 114.50449 L10.108974 114.50449 L7.9464375 115.37698 L6.7623385 116.07497 L6.145361 116.32426 L5.1357597 116.54238 L3.4281666 116.82282 L1.7641963 117.25907 L0.87923764 117.58937 L0.49907966 117.83243 L-0.2176102 118.79217 L-0.91560428 119.00406 L-1.6385298 119.60857 L-2.2991312 119.66466 L-2.1495616 119.34683 L-2.1246324 118.76101 L-2.3302916 118.41824 L-2.9223422 118.08171 L-4.729651 117.54575 L-5.0786486 117.4772 L-5.3964847 117.40864 L-8.3567298 117.48343 L-8.6683347 117.37748 L-9.1855989 117.04095 L-9.7838818 116.4676 L-10.101719 116.32426 L-10.332306 116.36788 L-10.943053 116.89138 L-11.29205 116.86022 L-11.410458 116.71065 L-11.422922 116.35542 L-11.198567 116.08121 L-10.930588 115.76337 L-10.351002 115.55148 L-9.8960587 115.2648 L-9.7464891 114.99059 L-9.5595268 114.67275 L-9.6592402 113.81895 L-9.590686 113.38894 L-9.3351707 112.71587 L-8.8490658 112.04281 L-7.4842369 110.7216 L-6.4559399 109.64968 L-5.4650378 108.91429 L-4.5800792 108.50297 L-3.7325144 108.24746 L-2.7914673 108.29732 L-2.0934721 108.20383 L-1.4391018 107.87353 L-0.9529981 107.11945 L-0.46066207 106.79538 L-0.14905827 106.63334 L3.546577 106.45261 L6.4631982 106.37783 L7.8654187 106.42145 L8.7628419 106.39653 L10.38942 106.07869 L12.589349 105.39939 L15.935373 105.31932 L16.019143 104.91592 L15.987279 104.3569 L16.008143 102.99285 L16.042859 102.28135 L19.150084 102.235 L19.340861 102.28205 L19.676564 102.28261 L19.94301 102.26271 L20.181338 102.24323 L20.340058 102.209 L24.681811 102.08179 L24.6757 101.26558 L24.692508 99.509391 L24.697612 99.146901 L24.670829 97.326215 L24.619384 96.774341 L24.593078 96.050247 L24.067037 96.069076 L23.766326 96.076277 L16.932312 96.272588 L13.47215 96.37433 L13.044642 89.822604 L14.400571 89.728089 L14.299589 87.83714 L15.641856 87.764363 L15.562748 82.932876 L20.502328 82.582137 L20.24326 77.476151 L17.783635 77.658218 L17.64719 70.356535 L13.700547 70.545122 L3.6518978 70.62603 L3.3426262 70.08887 L2.9779736 68.930977 L-5.9584901 69.259601 L-5.804152 72.929215 L-8.1864097 72.99482 L-8.1239847 78.550739 L-11.273473 78.677091 L-11.277609 81.730377 L-13.741089 81.874582 L-13.637086 84.949034 L-13.59592 86.231767 L-16.765241 86.379746 L-16.671334 92.082809 L-20.998952 92.099266 L-21.21607 85.692028 L-27.529734 85.825738 L-27.415167 88.216043 L-27.404157 88.475039 L-27.279482 91.01348 L-24.172051 90.909865 L-24.059553 95.943925 L-26.539707 96.087269 L-26.411689 101.63666 L-30.240587 101.81256 L-30.379398 103.67618 L-30.378617 105.44743 L-31.483773 105.57914 L-33.99064 105.51697 L-34.052634 104.03499 L-34.121673 103.86427 L-34.025055 102.97982 L-37.889173 103.10171 L-37.845391 98.011686 L-33.490394 97.823547 L-33.721214 90.917591 L-36.202616 90.979178 L-36.205523 87.442233 L-63.795366 87.763027 L-63.896925 85.300473 L-60.238268 85.174386 L-60.158953 82.735058 L-57.674938 82.57677 L-57.8282 77.675061 L-55.32989 77.534728 L-55.385255 75.082475 L-57.029968 75.12645 L-57.303631 75.133895 L-63.030609 75.287623 L-63.297007 75.294989 L-64.12799 75.31696 L-64.129711 75.926828 L-64.133654 78.40506 L-67.212913 78.60394 L-67.225543 82.868196 L-69.584116 82.851043 L-69.571291 83.195936 L-69.568511 83.355278 L-69.441674 87.842343 L-72.701421 87.97559 L-72.607365 90.776458 L-77.63227 90.937719 L-77.866699 90.932625 L-90.895317 91.361257 L-95.585541 91.443565 L-95.850505 91.448392 L-100.79349 91.533246 L-100.92459 92.87111 L-114.64629 93.273474 L-115.16883 93.288826 L-115.2894 95.628002 L-118.44535 95.802019 L-118.78344 95.87401 L-118.92144 95.79969 L-122.34227 95.896368 L-123.03445 95.914371 L-123.29656 95.948464 L-125.01365 95.967997 L-127.45995 96.038992 L-127.44832 92.852854 L-136.91924 92.842747 L-148.78472 92.728625 L-149.04697 94.179526 L-149.57267 95.273865 L-150.76474 95.923995 L-151.82857 96.378951 L-151.85558 95.018319 L-157.58691 97.755124 L-162.67731 100.30048 L-166.6479 100.32467 L-166.58601 103.375 L-165.51503 103.42675 L-165.45685 105.11147 L-165.42909 106.14601 L-165.52973 110.4042 L-165.53582 110.61848 L-165.54775 111.21615 L-177.80533 111.45637 L-177.79796 115.17876 L-182.67162 115.27964 L-182.49586 122.40922 L-191.10492 122.72984 L-190.89331 128.50232 L-193.83928 128.56646 L-193.86655 130.38919 L-198.3497 130.56869 L-198.42923 128.12721 L-197.69032 127.56189 L-197.89143 124.77367 L-197.42651 124.17952 L-197.39399 119.34032 L-203.88076 119.5769 L-203.92882 122.18469 L-205.28125 122.37445 L-205.2405 123.47146 L-206.98606 123.55605 L-210.27288 123.71417 L-210.39179 122.38666 L-211.82428 122.45339 L-215.46623 125.76989 L-215.43907 126.43762 L-212.99479 128.96329 L-212.91346 129.13518 L-157.12553 188.69431 L-156.43761 188.29876 L-155.04785 187.67555 L-154.62407 187.43249 L-153.04735 186.76566 L-152.15616 186.58493 Z "  fill="#FFED6F" fill-rule="evenodd" stroke="#6E6E6E" fill-opacity="1" stroke-opacity="1"  stroke-width="0.7" stroke-linecap="round" stroke-linejoin="round" stroke-miterlimit="10" />
</g>
</g>
<g clip-path="url(#cp_2)">
<g transform="matrix(4.1666667 0 0 -4.1666667 974.4075 826.77)">
<path d="M24.681811 102.08179 L20.340058 102.209 L20.181338 102.24323 L19.94301 102.26271 L19.676564 102.28261 L19.340861 102.28205 L19.150084 102.235 L16.042859 102.28135 L16.008143 102.99285 L15.987279 104.3569 L16.019143 104.91592 L16.322106 105.24026 L16.434168 105.3516 L16.581477 105.49326 L16.883266 105.63621 L17.325743 106.09115 L17.798709 106.23582 L18.011989 106.10582 L18.215587 105.9493 L18.599006 105.92765 L18.6928 106.16463 L19.034558 106.11727 L19.28269 106.05745 L19.607474 105.99719 L20.27888 106.00315 L20.274758 104.80856 L22.999991 104.8978 L23.733336 105.10387 L24.6592 105.47783 L24.694333 103.39545 L24.681811 102.08179 Z "  fill="#8DD3C7" fill-rule="evenodd" stroke="#6E6E6E" fill-opacity="1" stroke-opacity="1"  stroke-width="0.7" stroke-linecap="round" stroke-linejoin="round" stroke-miterlimit="10" />
</g>
</g>
<g clip-path="url(#cp_2)">
<g transform="matrix(4.1666667 0 0 -4.1666667 974.4075 826.77)">
<path d="M107.80213 30.977351 L107.94441 30.124034 L106.75873 30.180833 L106.72477 30.52493 L106.65992 31.018725 L106.69942 31.273575 L106.76066 31.449513 L106.7791 32.136645 L106.89361 34.949116 L107.03244 36.077538 L107.45071 35.848946 L107.41824 35.164757 L107.36988 34.908975 L107.37459 34.032744 L107.30994 33.541575 L107.50362 32.656443 L107.58401 32.132318 L107.66465 31.943554 L107.72313 31.615095 L107.80213 30.977351 Z "  fill="#BC80BD" fill-rule="evenodd" stroke="#6E6E6E" fill-opacity="1" stroke-opacity="1"  stroke-width="0.7" stroke-linecap="round" stroke-linejoin="round" stroke-miterlimit="10" />
</g>
</g>
<g clip-path="url(#cp_2)">
<g transform="matrix(4.1666667 0 0 -4.1666667 974.4075 826.77)">
<path d="M130.17778 16.128064 L129.97268 13.693547 L126.61269 13.558048 L126.48645 14.04039 L125.78112 15.748305 L125.30314 16.713563 L124.92178 17.307687 L124.34572 17.89302 L123.76163 18.483892 L123.1493 19.807758 L122.71052 20.711411 L122.65506 21.201352 L130.00703 21.128551 L130.17778 16.128064 Z "  fill="#FCCDE5" fill-rule="evenodd" stroke="#6E6E6E" fill-opacity="1" stroke-opacity="1"  stroke-width="0.7" stroke-linecap="round" stroke-linejoin="round" stroke-miterlimit="10" />
</g>
</g>
<g clip-path="url(#cp_2)">
<g transform="matrix(4.1666667 0 0 -4.1666667 974.4075 826.77)">
<path d="M126.61269 13.558048 L126.6759 13.324498 L126.99924 12.506575 L127.12867 12.296504 L127.42395 12.033918 L127.98213 11.696903 L128.44113 11.472609 L128.95002 11.392551 L129.16813 11.337359 L129.35391 11.20009 L129.57615 10.91204 L129.65306 10.68111 L129.56732 10.150657 L129.42392 9.4732905 L129.33596 8.908568 L128.61197 8.8774835 L128.54703 8.0644415 L128.85558 7.5903823 L124.93297 7.6043108 L124.89455 10.997152 L124.92382 13.917344 L124.92178 17.307687 L125.30314 16.713563 L125.78112 15.748305 L126.48645 14.04039 L126.61269 13.558048 Z "  fill="#B3DE69" fill-rule="evenodd" stroke="#6E6E6E" fill-opacity="1" stroke-opacity="1"  stroke-width="0.7" stroke-linecap="round" stroke-linejoin="round" stroke-miterlimit="10" />
</g>
</g>
<g clip-path="url(#cp_2)">
<g transform="matrix(4.1666667 0 0 -4.1666667 974.4075 826.77)">
<path d="M129.97268 13.693547 L130.17778 16.128064 L136.33718 16.179476 L136.42181 15.147218 L136.42134 14.50769 L136.39596 14.116498 L136.38673 13.905273 L136.34554 13.324411 L136.40439 11.944896 L136.41262 11.589351 L136.42075 11.105625 L130.22142 11.219132 L129.97268 13.693547 Z "  fill="#D9D9D9" fill-rule="evenodd" stroke="#6E6E6E" fill-opacity="1" stroke-opacity="1"  stroke-width="0.7" stroke-linecap="round" stroke-linejoin="round" stroke-miterlimit="10" />
</g>
</g>
<g clip-path="url(#cp_2)">
<g transform="matrix(4.1666667 0 0 -4.1666667 974.4075 826.77)">
<path d="M115.00141 22.443934 L114.84561 22.325525 L114.57763 22.443934 L114.38444 22.75554 L114.45922 22.954967 L114.69604 22.948735 L114.85184 22.836558 L115.00141 22.443934 Z M113.83601 22.954967 L113.87341 22.718148 L113.49325 22.814743 L112.78902 23.347589 L112.708 23.659192 L112.86381 23.814995 L113.06323 23.852388 L113.3281 23.762023 L113.83601 22.954967 Z M114.42183 23.478462 L114.19124 23.422373 L114.03544 23.733978 L114.03544 23.927174 L114.36574 23.986378 L114.42183 23.478462 Z M113.36861 24.195153 L112.94482 24.126602 L112.5522 24.201386 L112.40263 24.357188 L112.55843 24.51299 L113.06323 24.631401 L113.41535 24.590894 L113.53064 24.357188 L113.36861 24.195153 Z M115.01076 24.584659 L114.81445 24.350958 L114.58386 24.469367 L114.54024 24.743579 L114.81445 24.780973 L115.01076 24.584659 Z M120.22391 23.952103 L120.46073 23.793183 L120.53552 24.145298 L120.65393 24.494296 L120.73495 24.999096 L121.32076 24.999096 L121.55135 24.924309 L121.78817 24.45067 L121.93774 23.166858 L122.09354 22.462631 L122.16833 21.839421 L122.04992 21.453031 L122.01253 21.023016 L122.1247 20.518217 L122.2026 20.0103 L122.2805 19.546009 L122.16209 19.390207 L121.53888 19.271795 L120.32986 19.27803 L119.90608 19.433833 L117.49425 20.605465 L116.90844 20.960696 L116.36624 21.502888 L116.12942 21.664922 L115.47505 23.141929 L115.35665 23.609337 L115.40027 23.920941 L115.57477 23.983263 L115.86144 23.179321 L116.09826 22.830325 L116.40987 22.674522 L116.87104 22.325525 L117.30106 22.088704 L117.76847 22.088704 L118.08007 22.244506 L118.54748 22.905109 L119.17692 23.603106 L119.56331 24.301101 L119.68484 25.061415 L120.07434 24.650099 L120.22391 23.952103 Z M123.71389 25.382369 L123.53939 25.229683 L123.34619 25.304467 L123.34619 25.659698 L123.69519 25.653466 L123.71389 25.382369 Z M122.37399 25.267074 L122.13717 25.229683 L121.90658 25.348093 L121.78817 25.778106 L121.59498 26.208121 L121.59498 26.519727 L121.90658 26.476103 L122.45501 26.208121 L122.87879 26.089711 L122.93799 25.774989 L122.37399 25.267074 Z M130.55673 27.199027 L131.07711 26.769012 L130.83094 28.133838 L130.48195 28.794442 L128.26955 31.841938 L128.07636 32.502541 L128.11375 32.776754 L128.42535 33.007341 L128.66217 32.932557 L129.47858 32.265721 L129.98338 31.486708 L130.52557 30.352468 L131.95895 28.246019 L132.38897 27.697593 L133.08696 26.955973 L134.09656 26.681761 L134.73224 26.395084 L134.95036 26.28914 L135.57357 26.133337 L135.92257 25.859125 L136.6268 25.703322 L137.4432 24.999096 L137.67379 24.918077 L138.53382 25.036488 L139.66183 25.267074 L140.6091 25.260843 L140.83346 25.260843 L142.46627 24.675026 L143.59428 24.868222 L144.21749 25.335629 L144.76591 25.329396 L144.76591 24.824596 L145.07129 24.475598 L145.6758 24.185807 L147.63891 23.534553 L149.39013 22.749306 L151.41556 21.615066 L151.64615 21.57144 L151.68978 21.770869 L151.41556 22.045082 L151.43738 22.297481 L151.72717 22.394079 L152.23197 22.157257 L153.16678 22.157257 L154.02681 22.58104 L154.84945 22.58104 L156.47603 22.574809 L157.02445 22.419006 L157.28386 22.131241 L157.29243 21.365782 L157.6128 21.122305 L157.73535 20.728163 L157.96911 20.228847 L158.35898 19.700828 L158.73495 19.527718 L159.20927 19.327191 L159.70425 18.829318 L160.16543 18.162485 L160.71385 17.501883 L160.70762 17.071866 L160.98183 16.523441 L161.64244 15.975017 L161.72871 15.800461 L142.61454 16.049962 L142.46403 18.398452 L141.92631 18.414888 L141.71404 18.380554 L136.16046 18.38529 L136.33718 16.179476 L130.17778 16.128064 L130.00703 21.128551 L122.65506 21.201352 L122.63574 21.372013 L122.67313 21.802029 L122.67313 22.462631 L122.79777 24.176457 L122.79777 24.488063 L123.03459 24.724882 L123.38359 24.724882 L123.61417 24.562848 L124.0068 24.525454 L125.21582 24.793437 L125.4838 24.986631 L125.68323 25.60984 L126.07585 26.46987 L126.26905 26.507263 L126.34383 26.195658 L126.30644 25.335629 L126.38122 24.245011 L125.95121 23.465999 L125.40279 22.649593 L125.3654 22.381615 L125.75178 22.381615 L126.37499 23.235412 L127.04183 23.896014 L127.27242 23.814995 L127.77722 23.465999 L128.18853 23.444185 L128.01404 23.814995 L127.35343 24.245011 L127.04183 24.675026 L127.08545 24.986631 L127.43445 24.986631 L127.82084 24.868222 L128.05766 24.712419 L128.51884 23.88978 L129.14205 22.992361 L129.52844 22.992361 L129.80265 22.836558 L130.77486 22.057545 L131.04907 22.01392 L131.24226 22.172838 L130.38847 22.992361 L129.41626 24.082977 L128.21346 26.270441 L127.40329 27.554255 L127.0169 28.60748 L126.56507 29.560989 L125.88889 31.299747 L125.89512 31.922957 L126.28151 32.078759 L126.28151 32.35297 L125.97614 33.169374 L126.17245 33.406194 L126.79255 32.820377 L127.37213 31.841938 L128.15114 30.981909 L128.53753 30.202897 L130.01454 28.252249 L130.28252 27.822235 L130.55673 27.199027 Z M125.78294 34.571597 L125.87954 33.814397 L125.15973 34.422028 L124.77335 35.045237 L124.03796 37.189078 L123.72635 37.930699 L123.84476 38.435499 L123.76998 38.784496 L123.53316 39.139725 L123.33996 39.719309 L123.07198 40.890946 L122.76661 41.906775 L122.76661 42.112436 L122.76661 42.604772 L123.00343 43.072178 L123.02212 43.9696 L123.23402 44.006994 L123.58925 43.657996 L124.05042 41.744742 L124.86059 39.370313 L125.09118 38.391873 L125.40279 37.849681 L125.59598 36.871241 L125.67077 35.394235 L125.78294 34.571597 Z M113.52441 52.177273 L113.63659 51.435652 L113.55557 50.345037 L113.71137 49.64081 L113.82355 49.410222 L113.78616 49.173404 L113.04454 47.771181 L112.61452 46.954775 L112.45872 46.842597 L112.10349 46.917384 L111.91029 47.116811 L111.79812 47.465807 L111.76072 47.777413 L111.99131 48.438015 L111.95392 48.674835 L111.48651 49.023833 L111.33694 49.572256 L111.06273 50.195466 L110.98794 50.818676 L110.55793 51.479279 L110.17154 51.479279 L109.70413 50.862302 L109.39253 50.899695 L108.92512 51.248691 L108.80671 51.60392 L108.81294 52.339308 L109.16194 53.118321 L109.59195 53.666746 L109.59819 54.832148 L109.82877 54.98795 L110.17777 55.025343 L110.41459 55.573769 L110.80721 55.922766 L111.34941 56.190745 L111.89783 56.228137 L113.21903 55.87914 L113.53064 55.679713 L113.56803 55.13752 L113.79862 54.825914 L113.79862 54.551704 L113.72383 54.084295 L113.95442 53.810085 L114.11022 53.535871 L114.30342 52.719466 L114.14762 52.563665 L113.79239 52.445254 L113.52441 52.177273 Z M105.96487 66.878793 L106.39489 66.648205 L106.89969 66.878793 L107.21129 66.916185 L108.22089 66.60458 L109.0373 66.486171 L109.23672 66.286743 L109.66051 65.545124 L109.6979 65.196125 L108.76308 64.498131 L108.33307 63.874921 L108.29568 63.563315 L108.37046 63.176927 L108.75685 62.784305 L109.06846 62.665894 L109.49847 62.235879 L110.15908 61.37585 L110.50807 60.715247 L110.54547 60.322627 L110.11545 59.313027 L110.03443 58.608799 L110.20582 57.870296 L109.7166 57.873412 L109.64181 57.250201 L109.09339 56.782795 L108.85657 56.396404 L108.66337 55.810586 L108.54496 55.106361 L108.38916 54.682575 L107.99654 54.370972 L107.33593 54.096759 L106.94331 54.177776 L106.51953 54.451988 L105.89632 55.075199 L105.27311 56.016246 L104.92411 56.128424 L104.69353 56.091033 L104.47229 55.872907 L104.4567 55.237236 L104.9989 53.404998 L104.99267 53.012375 L104.29467 52.351771 L103.51566 52.395398 L103.21652 52.607289 L103.01086 52.744395 L102.15706 54.576631 L101.96387 55.206073 L101.73328 56.838883 L101.3095 57.617896 L100.76107 58.40314 L100.4557 59.219544 L100.22511 60.191753 L99.795095 61.051781 L99.720311 61.756008 L99.720311 62.379217 L100.03815 63.002427 L100.23134 63.270408 L100.23134 63.663031 L99.919739 63.818834 L99.533348 63.663031 L99.296529 63.744046 L99.296529 64.012029 L99.726545 64.479437 L100.20018 65.725854 L100.39338 66.934882 L100.1254 67.79491 L100.00699 68.181302 L100.24381 68.492905 L100.39961 68.997709 L100.54295 69.141045 L100.71121 69.309311 L101.17862 69.502508 L101.57124 69.502508 L102.19446 69.421489 L102.73665 69.190902 L103.35986 68.561459 L103.78987 68.249854 L104.68106 67.894626 L105.34166 67.583021 L105.57848 67.271415 L105.96487 66.878793 Z M94.958988 72.400431 L94.373171 72.244628 L93.905764 72.250861 L93.749961 72.521956 L94.335778 72.674643 L95.096094 72.634133 L94.958988 72.400431 Z M101.15369 72.69957 L100.48686 72.350574 L99.589436 72.468983 L99.203047 72.743197 L98.928834 73.017409 L98.735639 73.135819 L98.735639 73.329015 L98.891442 73.441192 L99.558278 73.403799 L100.76107 73.166978 L101.11007 72.930161 L101.15369 72.69957 Z M96.2428 87.556895 L95.775394 87.556895 L95.582199 87.750089 L95.656983 87.986908 L95.974819 88.335907 L95.781626 88.840707 L95.819017 89.074409 L96.012213 89.033902 L96.2428 88.566494 L96.2428 87.946399 L96.2428 87.556895 Z M52.917257 101.32983 L54.350638 101.21765 L55.840109 101.56665 L57.497848 102.37682 L58.395272 102.35813 L60.258668 102.07145 L60.95043 101.78477 L62.14076 101.12417 L64.415478 98.731043 L65.032453 98.481762 L66.191624 98.213781 L66.964404 97.958265 L68.273146 97.303895 L71.650943 95.459193 L72.26792 95.209908 L72.766488 95.079037 L73.152879 94.873375 L73.93189 94.854682 L75.228167 94.536842 L75.664412 94.181615 L75.851376 94.306256 L76.399802 94.343649 L77.178815 94.536842 L77.995218 94.804824 L78.930032 95.234839 L80.020651 95.228606 L80.413272 95.153822 L81.26707 94.449594 L81.734477 94.486986 L82.164491 94.754966 L82.438703 94.798591 L84.383119 94.43713 L85.355326 94.162916 L85.897518 93.69551 L86.676531 93.19071 L87.455544 92.872872 L87.80454 92.561268 L87.960342 92.21227 L89.088351 91.70124 L89.318939 91.776024 L89.125744 92.20604 L89.125744 92.442858 L89.325171 92.71084 L89.755187 92.71084 L90.216361 92.59243 L90.839571 92.59243 L91.313212 92.904034 L92.085991 92.704606 L92.322812 92.474019 L92.360204 91.383401 L92.82138 90.909763 L92.746593 90.679174 L92.026785 90.582576 L91.961348 89.669574 L91.537565 89.276952 L91.456548 88.853172 L91.612352 88.460548 L91.880333 88.229961 L92.702968 88.067926 L93.164145 87.407323 L93.980548 86.777882 L94.87797 86.347868 L95.301754 86.229456 L97.171383 86.185832 L97.327185 85.917851 L97.401971 85.176232 L98.723175 83.848796 L98.913254 83.736617 L99.115798 83.92358 L99.078406 85.6748 L98.262 86.260618 L97.838217 86.771648 L97.601397 86.771648 L97.445594 86.653238 L97.13399 86.771648 L97.13399 86.964843 L97.489219 87.357465 L97.919235 87.550661 L98.966226 87.469645 L99.047245 87.276448 L99.003619 86.553526 L99.589436 86.379029 L99.745239 86.142207 L99.589436 85.755819 L99.390011 85.051591 L99.464797 84.272578 L99.620597 83.649369 L100.16279 81.972934 L100.62397 80.844925 L101.12876 79.903878 L101.87038 78.969062 L102.29417 78.227443 L102.56215 77.448432 L102.64316 76.706812 L102.56215 76.239404 L102.32533 75.80939 L101.82053 75.578802 L100.84832 75.348213 L99.907275 74.924432 L99.327687 74.806022 L97.688648 74.575435 L96.990652 74.619058 L96.641654 74.737468 L96.47962 74.656451 L96.323817 74.544273 L95.974819 74.544273 L95.19581 74.974287 L94.691009 74.893271 L93.718801 74.50688 L93.051967 74.0831 L92.702968 73.665548 L92.466149 73.385104 L91.730762 73.191906 L90.870732 72.799286 L90.247523 72.138684 L89.73649 71.989112 L89.580687 71.83331 L89.231689 70.780086 L89.150674 70.156876 L89.225459 68.754653 L89.418654 68.050428 L89.767651 67.308808 L90.428254 66.529796 L92.098455 65.083949 L93.338643 64.186526 L93.999245 63.600708 L94.504045 62.896483 L95.127255 62.348057 L95.401468 62.348057 L95.575967 62.700171 L96.136855 61.999061 L96.604262 61.643831 L97.19008 61.874418 L98.050109 62.77184 L98.399107 62.927641 L98.629693 62.460236 L98.554909 62.067613 L98.511284 61.444403 L98.704477 60.665391 L98.629693 60.235376 L98.355481 59.886378 L98.355481 59.53738 L99.053478 58.328353 L99.514652 57.705144 L99.589436 57.081934 L99.782632 56.452494 L100.48063 55.287092 L100.71745 54.701274 L100.79223 53.959653 L100.94803 53.143249 L101.40921 52.16481 L101.83299 50.918388 L101.75821 50.644177 L101.71458 50.176771 L102.1446 49.516168 L102.18199 48.269748 L102.03865 47.995536 L102.54345 47.995536 L103.78987 48.375694 L104.02046 47.752484 L103.57798 47.6777 L103.30377 47.484505 L103.32558 47.232105 L103.61537 47.05449 L103.85219 46.823904 L104.04539 46.275477 L104.20119 46.119675 L104.58758 46.001265 L104.74338 45.496465 L104.89295 44.480633 L105.09238 44.169029 L105.32297 44.169029 L105.47877 44.32483 L105.47877 44.985432 L105.3292 45.533858 L105.3292 46.119675 L105.6782 46.231852 L105.96487 45.914014 L106.45721 44.71122 L107.31101 43.813799 L106.99317 43.190588 L107.30477 42.723181 L107.40137 42.196569 L109.37009 42.450125 L110.52677 38.996387 L110.67634 38.061573 L108.66337 37.276328 L108.61351 37.070668 L108.45771 36.522242 L108.10871 36.216871 L107.8345 35.905267 L107.79088 34.814649 L107.67247 33.992012 L107.74725 33.212999 L108.13364 32.315576 L108.17727 31.891795 L108.09625 31.654974 L108.08379 31.399459 L108.05263 30.83857 L108.36423 30.486456 L108.20843 30.21536 L108.20843 29.866364 L107.97161 29.629543 L107.93421 29.280547 L108.009 28.887922 L108.358 28.302106 L109.48601 27.367293 L110.26502 26.432479 L110.80721 25.765642 L111.00041 25.416645 L111.24658 24.519224 L111.57999 23.503392 L111.77319 23.465999 L111.92899 23.113885 L111.84797 22.724379 L112.00378 22.25697 L112.04117 21.789564 L112.22813 21.256719 L112.85757 20.698947 L113.20657 20.268931 L113.24396 19.957327 L113.39976 19.757901 L113.82978 19.761016 L113.79239 20.225308 L113.59919 20.692715 L113.10997 21.24114 L112.54597 21.596369 L112.47118 22.10117 L112.5522 22.450167 L112.7454 22.643362 L112.98222 22.60597 L113.53999 22.045079 L114.53401 21.976527 L115.11982 21.471728 L115.58723 21.272301 L116.28523 20.686483 L117.41324 20.063273 L120.32986 18.65482 L120.91568 18.573801 L121.50149 18.766996 L121.88788 18.804389 L123.3275 18.449161 L123.76163 18.483892 L124.34572 17.89302 L124.92178 17.307687 L124.92382 13.917344 L124.89455 10.997152 L124.93297 7.6043108 L124.84148 4.5365757 L118.99101 4.595328 L118.80368 4.6148808 L116.61038 4.6154333 L111.2019 4.6435426 L111.09876 3.9972829 L111.09363 3.5746785 L111.0816 3.1833397 L111.05136 0.97163881 L110.99215 -1.3401785 L108.53089 -1.3684339 L108.44081 -3.9026363 L104.83827 -3.8529387 L104.65053 -1.3264041 L102.67035 -1.1910958 L102.71599 0.80561843 L102.65395 1.1594185 L102.71719 1.491226 L104.98699 1.4659866 L105.02159 3.1680097 L105.05765 4.9517784 L105.03861 5.1047964 L105.0989 7.194874 L105.10108 7.3722291 L105.22223 14.110566 L109.06999 14.09252 L108.93382 14.448599 L108.70539 14.940226 L108.64179 15.131551 L108.22305 16.62709 L107.4221 18.803239 L106.05529 20.063418 L105.88714 20.218616 L105.73658 20.361125 L105.54098 20.539182 L105.20605 20.959391 L104.85776 20.847274 L89.842287 21.228918 L89.168996 21.200099 L88.678495 21.101048 L87.811829 20.884874 L86.949438 20.435848 L85.928102 19.544733 L86.201694 21.901955 L84.389383 22.078453 L84.450622 22.489943 L86.265659 22.562167 L86.346393 23.713437 L85.948207 23.755285 L85.432011 23.812517 L84.870806 23.869646 L84.402126 23.838974 L84.053184 23.96197 L83.817746 24.248416 L83.385562 24.367647 L82.918422 24.455464 L82.690077 24.516628 L83.078341 24.76243 L83.319059 24.849389 L83.699339 24.75993 L84.086125 24.64614 L84.552244 24.479362 L84.815175 24.420534 L85.093434 25.267837 L85.179883 25.53765 L85.591727 26.786509 L84.39308 26.903834 L84.154258 26.927016 L83.949502 26.948026 L83.741881 26.958333 L83.74046 27.65646 L83.743478 28.030247 L83.778622 28.866483 L83.762938 29.007 L83.749642 31.842915 L81.538309 31.948524 L81.342517 31.957307 L81.084053 31.970372 L81.083303 32.296743 L81.077953 32.549034 L81.051287 34.235934 L79.71734 34.308766 L79.517352 34.320155 L74.245871 34.613492 L74.290426 37.204184 L68.685686 37.351735 L68.498936 39.73026 L66.254551 39.87403 L65.153918 41.324595 L65.275505 47.238437 L64.912322 47.293924 L64.954344 49.127525 L64.972031 49.66361 L65.877367 49.722769 L65.978481 50.787124 L67.396838 50.857429 L67.423416 51.787669 L67.486662 51.981184 L67.628146 52.080798 L67.947318 52.100766 L68.662976 52.079047 L69.448272 52.101449 L71.261474 52.14862 L71.390523 52.731034 L71.932308 52.821525 L72.000743 53.526701 L72.264555 53.552297 L72.454896 53.809266 L74.112269 53.845145 L75.117315 53.863035 L75.377249 53.870689 L75.957568 54.233053 L76.18112 54.375619 L76.649694 54.704819 L76.13183 55.116306 L75.775833 55.435586 L75.461342 55.767486 L74.817424 56.88051 L74.318453 57.651402 L73.733287 58.496894 L73.490704 59.007329 L73.220436 59.518825 L72.46191 59.549685 L72.127367 60.178456 L71.569201 60.418014 L71.356032 60.797804 L70.855723 60.726173 L70.499025 60.712916 L70.279091 60.329894 L70.004427 60.542134 L70.137913 60.947097 L69.954508 61.190684 L69.487558 61.524681 L68.893901 61.688536 L68.065683 61.937315 L67.467827 62.32853 L67.001838 62.697196 L66.308786 63.200581 L65.862039 63.478923 L65.409032 63.831498 L64.749201 64.202119 L64.375683 64.017308 L64.17881 64.805058 L63.215382 64.820191 L63.159258 65.503486 L62.832026 66.41982 L62.826427 66.776754 L62.825678 66.989147 L62.686799 67.345466 L59.744824 67.397325 L59.563091 67.788541 L59.465052 67.990832 L59.212936 68.049714 L59.042414 67.467908 L56.989512 67.567439 L56.788164 69.798673 L56.546998 69.794022 L56.326443 69.82443 L53.755556 69.832548 L52.739235 69.854601 L50.709551 69.882815 L50.699693 73.900589 L50.786901 82.275933 L50.781923 82.537585 L50.801852 82.957921 L50.830413 83.395113 L49.542161 83.530543 L49.56442 84.376309 L49.51561 85.089331 L49.346719 87.633389 L48.796596 87.659103 L47.5606 87.674349 L46.324895 87.677856 L46.302045 88.392252 L46.35119 91.997277 L46.895146 91.968144 L47.576171 91.973592 L51.247721 91.864964 L51.154204 93.099353 L51.238434 94.683276 L51.255819 95.556483 L51.235422 95.818352 L51.230488 96.848129 L49.957271 96.870744 L49.751117 96.971675 L49.732993 98.417748 L49.764931 99.469186 L49.757197 100.14907 L49.73174 100.56727 L49.74871 101.03477 L49.727973 101.40093 L49.684468 103.10745 L50.218757 102.57002 L51.907656 101.59158 L52.917257 101.32983 Z M106.75873 30.180833 L107.94441 30.124034 L107.80213 30.977351 L107.72313 31.615095 L107.66465 31.943554 L107.58401 32.132318 L107.50362 32.656443 L107.30994 33.541575 L107.37459 34.032744 L107.36988 34.908975 L107.41824 35.164757 L107.45071 35.848946 L107.03244 36.077538 L106.89361 34.949116 L106.7791 32.136645 L106.76066 31.449513 L106.69942 31.273575 L106.65992 31.018725 L106.72477 30.52493 L106.75873 30.180833 Z "  fill="#FDB462" fill-rule="evenodd" stroke="#6E6E6E" fill-opacity="1" stroke-opacity="1"  stroke-width="0.7" stroke-linecap="round" stroke-linejoin="round" stroke-miterlimit="10" />
</g>
</g>
<g clip-path="url(#cp_2)">
<g transform="matrix(4.1666667 0 0 -4.1666667 974.4075 826.77)">
<path d="M158.10572 20.437199 L159.20927 19.327191 L158.73495 19.527718 L158.35898 19.700828 L157.96911 20.228847 L157.73535 20.728163 L157.6128 21.122305 L157.75984 21.010552 L158.10572 20.437199 Z M16.322106 105.24026 L16.019143 104.91592 L15.935373 105.31932 L16.434168 105.3516 L16.322106 105.24026 Z M-215.43907 126.43762 L-215.46623 125.76989 L-215.78902 126.06384 L-215.43907 126.43762 Z M-182.49586 122.40922 L-182.67162 115.27964 L-177.79796 115.17876 L-177.80533 111.45637 L-165.54775 111.21615 L-165.53582 110.61848 L-165.52973 110.4042 L-165.42909 106.14601 L-165.45685 105.11147 L-165.51503 103.42675 L-166.58601 103.375 L-166.6479 100.32467 L-162.67731 100.30048 L-157.58691 97.755124 L-151.85558 95.018319 L-151.82857 96.378951 L-150.76474 95.923995 L-149.57267 95.273865 L-149.04697 94.179526 L-148.78472 92.728625 L-136.91924 92.842747 L-127.44832 92.852854 L-127.45995 96.038992 L-125.01365 95.967997 L-123.29656 95.948464 L-123.03445 95.914371 L-122.34227 95.896368 L-118.92144 95.79969 L-118.78344 95.87401 L-118.44535 95.802019 L-115.2894 95.628002 L-115.16883 93.288826 L-114.64629 93.273474 L-100.92459 92.87111 L-100.79349 91.533246 L-95.850505 91.448392 L-95.585541 91.443565 L-90.895317 91.361257 L-77.866699 90.932625 L-77.63227 90.937719 L-72.607365 90.776458 L-72.701421 87.97559 L-69.441674 87.842343 L-69.568511 83.355278 L-69.571291 83.195936 L-69.584116 82.851043 L-67.225543 82.868196 L-67.212913 78.60394 L-64.133654 78.40506 L-64.129711 75.926828 L-64.12799 75.31696 L-63.297007 75.294989 L-63.030609 75.287623 L-57.303631 75.133895 L-57.029968 75.12645 L-55.385255 75.082475 L-55.32989 77.534728 L-57.8282 77.675061 L-57.674938 82.57677 L-60.158953 82.735058 L-60.238268 85.174386 L-63.896925 85.300473 L-63.795366 87.763027 L-36.205523 87.442233 L-36.202616 90.979178 L-33.721214 90.917591 L-33.490394 97.823547 L-37.845391 98.011686 L-37.889173 103.10171 L-34.025055 102.97982 L-34.121673 103.86427 L-34.052634 104.03499 L-33.99064 105.51697 L-31.483773 105.57914 L-30.378617 105.44743 L-30.379398 103.67618 L-30.240587 101.81256 L-26.411689 101.63666 L-26.539707 96.087269 L-24.059553 95.943925 L-24.172051 90.909865 L-27.279482 91.01348 L-27.404157 88.475039 L-27.415167 88.216043 L-27.529734 85.825738 L-21.21607 85.692028 L-20.998952 92.099266 L-16.671334 92.082809 L-16.765241 86.379746 L-13.59592 86.231767 L-13.637086 84.949034 L-13.741089 81.874582 L-11.277609 81.730377 L-11.273473 78.677091 L-8.1239847 78.550739 L-8.1864097 72.99482 L-5.804152 72.929215 L-5.9584901 69.259601 L2.9779736 68.930977 L3.3426262 70.08887 L3.6518978 70.62603 L13.700547 70.545122 L17.64719 70.356535 L17.783635 77.658218 L20.24326 77.476151 L20.502328 82.582137 L15.562748 82.932876 L15.641856 87.764363 L14.299589 87.83714 L14.400571 89.728089 L13.044642 89.822604 L13.47215 96.37433 L16.932312 96.272588 L23.766326 96.076277 L24.067037 96.069076 L24.593078 96.050247 L24.619384 96.774341 L24.670829 97.326215 L24.697612 99.146901 L24.692508 99.509391 L24.6757 101.26558 L24.681811 102.08179 L24.694333 103.39545 L24.6592 105.47783 L23.733336 105.10387 L22.999991 104.8978 L20.274758 104.80856 L20.27888 106.00315 L19.607474 105.99719 L19.28269 106.05745 L19.034558 106.11727 L18.6928 106.16463 L18.599006 105.92765 L18.215587 105.9493 L18.011989 106.10582 L17.798709 106.23582 L18.385202 106.41522 L19.164214 106.43392 L20.603828 106.5087 L23.302327 106.75176 L25.732845 107.31264 L26.275037 107.33757 L27.67726 107.41236 L28.574681 107.31264 L29.540656 107.13191 L31.167234 106.65827 L33.616447 106.59595 L34.588657 106.37783 L34.937653 106.46819 L35.218098 106.63334 L35.616951 107.12568 L36.096822 107.58062 L37.823114 108.00441 L38.408931 108.06673 L38.870108 107.89846 L39.636656 107.33134 L40.210008 107.00727 L40.66495 106.60219 L41.19468 105.96651 L41.730639 105.44301 L42.571974 105.0317 L43.269968 104.8198 L43.967963 104.72632 L46.305 104.73879 L47.470402 104.55182 L48.124773 104.38356 L48.891322 103.89122 L49.1593 103.6357 L49.684468 103.10745 L49.727973 101.40093 L49.74871 101.03477 L49.73174 100.56727 L49.757197 100.14907 L49.764931 99.469186 L49.732993 98.417748 L49.751117 96.971675 L49.957271 96.870744 L51.230488 96.848129 L51.235422 95.818352 L51.255819 95.556483 L51.238434 94.683276 L51.154204 93.099353 L51.247721 91.864964 L47.576171 91.973592 L46.895146 91.968144 L46.35119 91.997277 L46.302045 88.392252 L46.324895 87.677856 L47.5606 87.674349 L48.796596 87.659103 L49.346719 87.633389 L49.51561 85.089331 L49.56442 84.376309 L49.542161 83.530543 L50.830413 83.395113 L50.801852 82.957921 L50.781923 82.537585 L50.786901 82.275933 L50.699693 73.900589 L50.709551 69.882815 L52.739235 69.854601 L53.755556 69.832548 L56.326443 69.82443 L56.546998 69.794022 L56.788164 69.798673 L56.989512 67.567439 L59.042414 67.467908 L59.212936 68.049714 L59.465052 67.990832 L59.563091 67.788541 L59.744824 67.397325 L62.686799 67.345466 L62.825678 66.989147 L62.826427 66.776754 L62.832026 66.41982 L63.159258 65.503486 L63.215382 64.820191 L64.17881 64.805058 L64.375683 64.017308 L64.749201 64.202119 L65.409032 63.831498 L65.862039 63.478923 L66.308786 63.200581 L67.001838 62.697196 L67.467827 62.32853 L68.065683 61.937315 L68.893901 61.688536 L69.487558 61.524681 L69.954508 61.190684 L70.137913 60.947097 L70.004427 60.542134 L70.279091 60.329894 L70.499025 60.712916 L70.855723 60.726173 L71.356032 60.797804 L71.569201 60.418014 L72.127367 60.178456 L72.46191 59.549685 L73.220436 59.518825 L73.490704 59.007329 L73.733287 58.496894 L74.318453 57.651402 L74.817424 56.88051 L75.461342 55.767486 L75.775833 55.435586 L76.13183 55.116306 L76.649694 54.704819 L76.18112 54.375619 L75.957568 54.233053 L75.377249 53.870689 L75.117315 53.863035 L74.112269 53.845145 L72.454896 53.809266 L72.264555 53.552297 L72.000743 53.526701 L71.932308 52.821525 L71.390523 52.731034 L71.261474 52.14862 L69.448272 52.101449 L68.662976 52.079047 L67.947318 52.100766 L67.628146 52.080798 L67.486662 51.981184 L67.423416 51.787669 L67.396838 50.857429 L65.978481 50.787124 L65.877367 49.722769 L64.972031 49.66361 L64.954344 49.127525 L64.912322 47.293924 L65.275505 47.238437 L65.153918 41.324595 L66.254551 39.87403 L68.498936 39.73026 L68.685686 37.351735 L74.290426 37.204184 L74.245871 34.613492 L79.517352 34.320155 L79.71734 34.308766 L81.051287 34.235934 L81.077953 32.549034 L81.083303 32.296743 L81.084053 31.970372 L81.342517 31.957307 L81.538309 31.948524 L83.749642 31.842915 L83.762938 29.007 L83.778622 28.866483 L83.743478 28.030247 L83.74046 27.65646 L83.741881 26.958333 L83.949502 26.948026 L84.154258 26.927016 L84.39308 26.903834 L85.591727 26.786509 L85.179883 25.53765 L85.093434 25.267837 L84.815175 24.420534 L84.552244 24.479362 L84.086125 24.64614 L83.699339 24.75993 L83.319059 24.849389 L83.078341 24.76243 L82.690077 24.516628 L82.918422 24.455464 L83.385562 24.367647 L83.817746 24.248416 L84.053184 23.96197 L84.402126 23.838974 L84.870806 23.869646 L85.432011 23.812517 L85.948207 23.755285 L86.346393 23.713437 L86.265659 22.562167 L84.450622 22.489943 L84.389383 22.078453 L86.201694 21.901955 L85.928102 19.544733 L86.949438 20.435848 L87.811829 20.884874 L88.678495 21.101048 L89.168996 21.200099 L89.842287 21.228918 L104.85776 20.847274 L105.20605 20.959391 L105.54098 20.539182 L105.73658 20.361125 L105.88714 20.218616 L106.05529 20.063418 L107.4221 18.803239 L108.22305 16.62709 L108.64179 15.131551 L108.70539 14.940226 L108.93382 14.448599 L109.06999 14.09252 L105.22223 14.110566 L105.10108 7.3722291 L105.0989 7.194874 L105.03861 5.1047964 L105.05765 4.9517784 L105.02159 3.1680097 L104.98699 1.4659866 L102.71719 1.491226 L102.65395 1.1594185 L102.71599 0.80561843 L102.67035 -1.1910958 L104.65053 -1.3264041 L104.83827 -3.8529387 L108.44081 -3.9026363 L108.53089 -1.3684339 L110.99215 -1.3401785 L111.05136 0.97163881 L111.0816 3.1833397 L111.09363 3.5746785 L111.09876 3.9972829 L111.2019 4.6435426 L116.61038 4.6154333 L118.80368 4.6148808 L118.99101 4.595328 L124.84148 4.5365757 L124.93297 7.6043108 L128.85558 7.5903823 L128.54703 8.0644415 L128.61197 8.8774835 L129.33596 8.908568 L129.42392 9.4732905 L129.56732 10.150657 L129.65306 10.68111 L129.57615 10.91204 L129.35391 11.20009 L129.16813 11.337359 L128.95002 11.392551 L128.44113 11.472609 L127.98213 11.696903 L127.42395 12.033918 L127.12867 12.296504 L126.99924 12.506575 L126.6759 13.324498 L126.61269 13.558048 L129.97268 13.693547 L130.22142 11.219132 L136.42075 11.105625 L136.41262 11.589351 L136.40439 11.944896 L136.34554 13.324411 L136.38673 13.905273 L136.39596 14.116498 L136.42134 14.50769 L136.42181 15.147218 L136.33718 16.179476 L136.16046 18.38529 L141.71404 18.380554 L141.92631 18.414888 L142.46403 18.398452 L142.61454 16.049962 L161.72871 15.800461 L161.91041 15.432825 L162.49623 14.809615 L162.41521 14.298582 L162.49623 13.912192 L162.95741 13.245358 L163.3438 12.347936 L163.4996 11.375728 L163.53699 10.5157 L163.43105 10.241488 L163.26278 9.817703 L163.26278 9.1944943 L163.18176 8.9639059 L163.30017 8.6896948 L163.33757 8.4154814 L163.10075 7.6364685 L163.10075 7.0942775 L163.64294 5.3742198 L163.63671 4.1651916 L163.8299 3.5045891 L163.86729 2.8439866 L164.4905 1.5913346 L164.56529 1.2423381 L164.3721 0.85594781 L164.64008 0.34491487 L164.21006 -0.23467 L164.21006 -0.66468414 L164.48427 -0.93889638 L164.94545 -1.2131086 L165.45025 -1.7179093 L165.48764 -2.4969221 L165.37546 -2.8085259 L165.21343 -2.964329 L164.74602 -3.0017205 L164.78965 -3.2385412 L165.25082 -4.0549456 L165.25082 -4.2917652 L164.90182 -4.2917652 L164.47181 -4.0175541 L164.27861 -4.0549456 L163.92962 -4.7529409 L164.15709 -5.4166601 L163.6554 -5.338758 L163.38119 -5.5319526 L163.45598 -5.7687722 L163.76758 -6.1987874 L163.92338 -7.0899772 L164.23499 -7.1709949 L164.42818 -7.1709949 L165.12618 -7.6820267 L165.28198 -7.9936294 L165.12618 -8.1494324 L164.62138 -8.068417 L164.07295 -7.7568132 L162.87016 -6.7409796 L161.97274 -6.2673394 L161.58635 -6.2299478 L161.43054 -6.4231424 L163.60555 -8.1432024 L164.03556 -8.4174146 L165.43778 -8.9658391 L166.21056 -9.1216421 L166.71848 -8.9689558 L166.64058 -8.7352507 L166.5284 -8.3488615 L166.84001 -8.3862531 L167.3822 -8.7352507 L168.08331 -9.8320997 L168.27339 -9.520497 L168.47281 -9.4831032 L169.5572 -11.156423 L169.09291 -10.922717 L168.97138 -11.115913 L169.16458 -11.70173 L169.45437 -12.2782 L169.55097 -12.792348 L169.89997 -13.184968 L170.56057 -13.696001 L171.10899 -14.593424 L171.91916 -16.500445 L171.95656 -16.967853 L172.07497 -17.323082 L172.61716 -17.597296 L172.69195 -17.908899 L172.06874 -18.644288 L172.03134 -18.918499 L172.45513 -19.267495 L172.53614 -19.778529 L173.04094 -20.320721 L173.11573 -20.594934 L172.88514 -20.67595 L172.29932 -20.669718 L172.14352 -20.869147 L172.5673 -21.180752 L173.11573 -21.29916 L173.34632 -21.610764 L173.73894 -22.003388 L174.51172 -22.314992 L174.94173 -22.707615 L175.40914 -23.249807 L175.32812 -23.449234 L175.29073 -23.760839 L176.06351 -24.926241 L176.023 -25.163062 L175.71451 -25.237846 L175.67712 -25.431041 L176.02612 -25.904682 L176.60882 -26.917398 L176.91731 -26.721086 L177.15413 -26.608907 L177.42211 -27.038921 L177.81473 -27.425313 L178.16373 -27.662131 L178.43171 -28.048524 L179.13594 -28.441144 L179.52233 -28.596947 L179.90872 -29.070586 L179.98973 -29.338566 L179.67813 -29.456977 L179.59711 -29.693796 L179.28551 -30.080186 L178.85549 -30.080186 L178.6249 -29.999169 L178.3133 -29.999169 L178.19489 -30.310773 L178.54388 -30.547593 L179.01129 -30.622379 L179.22318 -30.974494 L179.43508 -31.170804 L180.05828 -31.756621 L180.61357 -32.535015 L179.18353 -32.492899 L178.72476 -32.493441 L177.58564 -32.477009 L177.36646 -32.49279 L161.13568 -32.167673 L154.28541 -32.120291 L135.65656 -31.855455 L135.39505 -36.818333 L134.2173 -36.820819 L134.13865 -41.865455 L135.41394 -41.872396 L135.35848 -43.241582 L135.37202 -43.431585 L135.35043 -44.0868 L135.34311 -44.729012 L135.36436 -44.982848 L135.31055 -45.254303 L135.30563 -45.419382 L135.27285 -45.737732 L135.21868 -46.213121 L134.94283 -46.194731 L129.02492 -45.909128 L125.90538 -45.788323 L125.97696 -53.670661 L125.73218 -54.381469 L122.34455 -54.20942 L121.74296 -53.060466 L118.82939 -52.807045 L118.18378 -52.728005 L117.69189 -52.557938 L117.3315 -52.173254 L116.88618 -51.65244 L116.02915 -50.928534 L115.07616 -50.68709 L114.157 -50.512541 L112.91021 -50.228706 L111.96999 -49.989407 L110.71783 -49.7761 L109.76267 -49.418077 L106.99425 -51.522613 L105.36055 -49.834836 L103.18178 -51.724574 L99.460244 -51.643855 L99.299232 -50.88868 L94.890777 -50.947193 L94.613135 -56.142471 L93.804553 -56.301361 L93.243059 -56.162635 L92.790858 -56.463187 L92.437162 -56.649267 L92.279812 -56.73181 L92.068951 -56.649462 L91.587896 -56.456295 L90.762451 -56.038414 L90.236222 -55.564032 L89.652324 -55.289848 L88.980346 -55.098373 L88.495131 -54.984098 L87.736612 -54.754772 L87.219396 -54.685109 L86.682997 -54.511951 L86.250301 -54.069885 L85.719499 -53.99448 L85.337345 -53.69856 L84.602309 -53.276838 L83.94777 -53.080638 L83.4143 -52.931025 L82.676126 -52.755201 L81.913776 -52.581819 L81.281694 -52.272223 L80.595723 -52.078322 L80.19807 -52.173628 L79.864249 -52.19562 L79.43063 -51.833136 L79.055171 -51.06398 L78.479222 -50.681614 L77.860477 -50.158022 L77.39745 -49.678721 L76.90741 -49.140855 L76.324559 -48.802707 L75.878808 -48.607007 L75.156268 -48.568419 L74.509877 -48.55992 L73.826718 -48.437288 L73.17927 -48.491803 L72.256373 -48.875953 L71.626398 -48.693698 L71.05321 -48.661851 L70.507864 -49.141036 L69.84169 -49.317191 L69.238547 -49.447056 L68.666914 -49.571094 L67.916646 -49.799448 L67.398092 -49.837562 L66.99972 -49.747007 L66.710154 -49.799259 L66.441477 -50.162903 L66.160831 -50.603295 L65.771752 -50.838518 L65.331655 -51.242121 L64.847763 -51.309763 L64.733943 -51.506406 L64.836588 -51.870174 L64.745234 -52.225794 L64.244055 -52.493445 L63.513993 -53.007453 L63.11053 -53.292343 L62.883648 -53.120213 L62.455048 -52.937736 L61.854929 -52.836778 L61.451991 -52.812619 L61.220195 -52.465799 L60.282761 -52.643643 L60.04161 -52.449821 L59.654929 -52.537419 L59.279988 -52.733267 L58.72744 -52.720207 L58.463684 -52.447074 L57.19592 -52.85523 L57.232598 -58.078877 L59.76831 -58.012931 L59.742531 -62.194272 L62.639669 -62.421262 L62.581635 -65.438771 L64.955304 -65.563563 L65.101914 -70.978488 L67.149927 -71.005902 L68.186469 -71.019732 L68.154003 -72.669095 L66.735215 -72.903761 L66.707921 -73.376647 L66.060535 -73.407484 L66.113537 -73.875901 L62.97005 -74.027004 L62.903099 -72.566849 L59.975508 -72.471835 L59.819102 -71.70059 L59.310962 -71.685377 L59.321585 -70.903231 L55.757468 -70.85741 L55.753387 -70.256258 L55.754201 -68.531277 L54.653949 -68.381083 L54.663738 -67.667522 L54.091321 -67.789239 L54.025362 -67.281124 L52.439078 -67.074288 L52.331294 -66.295358 L51.909783 -66.35052 L51.61476 -66.555012 L51.39245 -66.544321 L51.201133 -66.534055 L50.527002 -66.495629 L50.533148 -66.051559 L50.017732 -65.843478 L49.834944 -65.481324 L49.437943 -65.544418 L49.332823 -64.726711 L47.798057 -64.676278 L47.739254 -64.381665 L47.083923 -64.240189 L46.908868 -63.587798 L45.071731 -63.406221 L44.973067 -64.234951 L43.641767 -63.459968 L43.525603 -64.315125 L43.667879 -64.57073 L43.979421 -64.913244 L44.688957 -65.545775 L45.310041 -66.018374 L45.566977 -65.541088 L46.651894 -65.540303 L46.722082 -65.998604 L47.319095 -66.107401 L47.427605 -66.531588 L48.477805 -66.308531 L48.290677 -70.751647 L47.386781 -70.73907 L47.065418 -69.328677 L45.09874 -69.195193 L44.981288 -68.368984 L44.422354 -68.305722 L44.413228 -67.200398 L42.959237 -66.99013 L42.817963 -67.635326 L41.612727 -67.758324 L41.610219 -68.194826 L36.617266 -68.332652 L36.67098 -67.21782 L36.096328 -67.299712 L35.089428 -67.642195 L34.891371 -70.560012 L37.826408 -70.601825 L37.700842 -74.562825 L35.324946 -74.552553 L35.189933 -76.440207 L36.281696 -76.495966 L36.328689 -77.83881 L37.510209 -77.935304 L37.498077 -81.004048 L35.556268 -80.999968 L35.404097 -82.396098 L33.705033 -82.728671 L33.435682 -83.065728 L32.37806 -83.06373 L31.264351 -83.060894 L31.127666 -83.061699 L30.487147 -83.412102 L28.418015 -83.308089 L28.23974 -81.445024 L27.132994 -81.468485 L27.123191 -81.169694 L27.116536 -80.936777 L27.075703 -79.664678 L26.683787 -79.582769 L26.699839 -78.948287 L26.70256 -78.509709 L26.698704 -77.581833 L26.692394 -76.822994 L26.685396 -75.860426 L26.297131 -75.781336 L26.285649 -73.465429 L26.841716 -73.259395 L26.782894 -71.564348 L20.880411 -71.530791 L20.730326 -70.357543 L19.76036 -70.341887 L15.879065 -70.283127 L12.65892 -70.235196 L11.382311 -70.221654 L11.438565 -68.56501 L2.3307403 -68.221684 L2.2314786 -68.811938 L-1.9649078 -68.792073 L-5.2509228 -65.795336 L-5.2424863 -64.901356 L-5.2298813 -63.643173 L-7.6489146 -63.608494 L-211.82428 122.45339 L-210.39179 122.38666 L-210.27288 123.71417 L-206.98606 123.55605 L-205.2405 123.47146 L-205.28125 122.37445 L-203.92882 122.18469 L-203.88076 119.5769 L-197.39399 119.34032 L-197.42651 124.17952 L-197.89143 124.77367 L-197.69032 127.56189 L-198.42923 128.12721 L-198.3497 130.56869 L-193.86655 130.38919 L-193.83928 128.56646 L-190.89331 128.50232 L-191.10492 122.72984 L-182.49586 122.40922 Z "  fill="#CCEBC5" fill-rule="evenodd" stroke="#6E6E6E" fill-opacity="1" stroke-opacity="1"  stroke-width="0.7" stroke-linecap="round" stroke-linejoin="round" stroke-miterlimit="10" />
</g>
</g>
<g clip-path="url(#cp_2)">
<g transform="matrix(4.1666667 0 0 -4.1666667 974.4075 826.77)">
<path d="M171.37697 -79.095635 L171.11522 -79.095635 L170.49201 -78.621998 L170.49825 -78.310392 L171.04044 -78.310392 L171.58263 -78.703015 L171.66365 -79.095635 L171.37697 -79.095635 Z M169.09602 -77.525148 L169.17081 -77.992555 L168.24223 -77.656022 L167.84961 -77.518916 L167.67734 -77.408265 L167.03621 -76.658887 L167.46945 -76.658887 L168.08643 -77.051509 L168.79065 -77.132525 L169.09602 -77.525148 Z M167.86207 -74.789257 L167.97736 -75.415585 L167.62525 -75.325218 L167.16408 -74.789257 L167.16408 -74.396634 L167.47568 -74.32185 L167.86207 -74.789257 Z M184.09863 -47.505019 L184.28629 -47.506893 L184.85344 -47.498489 L184.88816 -47.897754 L185.06266 -48.424365 L184.53293 -48.327767 L184.22756 -48.171966 L183.76015 -48.171966 L183.75392 -48.639374 L183.83494 -48.950977 L183.83494 -49.218961 L184.02813 -49.611581 L183.59812 -49.804777 L183.44232 -49.997971 L183.28651 -50.465378 L182.38909 -51.362801 L182.11488 -51.904994 L181.91545 -51.904994 L181.56957 -51.730497 L181.18006 -51.979778 L180.78744 -52.060797 L180.12684 -51.942385 L179.93364 -51.742959 L180.17046 -51.007571 L180.36366 -50.614949 L180.32627 -50.384363 L180.13307 -50.184934 L179.89625 -50.184934 L179.70306 -50.378129 L179.54725 -50.808145 L179.39145 -50.963946 L179.15463 -51.038733 L179.03622 -51.549762 L178.80563 -51.468746 L178.33823 -51.119749 L177.7898 -51.113517 L177.4782 -51.231928 L176.66179 -50.876696 L175.41537 -50.951482 L174.36215 -50.870464 L173.42733 -51.144678 L172.49252 -51.531068 L171.95033 -52.035868 L171.5577 -52.19167 L171.0529 -52.540668 L170.69767 -52.540668 L170.66028 -52.266455 L170.50448 -52.110653 L170.19287 -52.073261 L169.68807 -52.303847 L168.94645 -53.276055 L168.86544 -53.550268 L169.02124 -53.936656 L169.05863 -54.989882 L168.74703 -55.924695 L168.7408 -56.473121 L169.0524 -57.09633 L169.4014 -57.445329 L169.9062 -57.563739 L170.80362 -58.30536 L171.58263 -58.735373 L172.36164 -58.623195 L172.74803 -58.860014 L173.48965 -59.445831 L174.11286 -59.520618 L175.66466 -59.838455 L176.99209 -60.505289 L177.69009 -61.165891 L178.42548 -62.063311 L180.13307 -63.864389 L180.98687 -64.955005 L181.64747 -66.045623 L182.38286 -67.60988 L182.88766 -68.856299 L182.88766 -69.946917 L183.15564 -70.495342 L183.19303 -70.84434 L182.63837 -72.2154 L183.21796 -73.69864 L183.28651 -74.714473 L183.5171 -75.879874 L182.65707 -76.733671 L182.10241 -78.603299 L182.25198 -79.22651 L182.87519 -79.84972 L183.41739 -79.855953 L183.74166 -80.389333 L182.26305 -80.801832 L181.93415 -80.472931 L180.61294 -80.778302 L179.98973 -80.697287 L178.1201 -79.750008 L177.34732 -79.594206 L176.9547 -79.980594 L176.79267 -80.522786 L177.17906 -81.071212 L178.26967 -81.700653 L178.2859 -81.818294 L177.74479 -81.956331 L177.53697 -82.012073 L176.33404 -82.314521 L175.85785 -80.909176 L175.00405 -80.049148 L175.04768 -79.862183 L175.24711 -78.958531 L174.7797 -78.0985 L173.77633 -77.001651 L172.99732 -76.609031 L172.21831 -76.602797 L171.35828 -77.144989 L170.19287 -77.138758 L169.88127 -76.827154 L169.8875 -75.269128 L168.95892 -74.172279 L167.94932 -73.393267 L166.70913 -72.608024 L166.47231 -72.838611 L166.46608 -73.84821 L165.8491 -73.536605 L164.60891 -72.283954 L164.01063 -72.009741 L162.28434 -70.127648 L161.03792 -68.644408 L160.45834 -68.058591 L158.59494 -66.107946 L158.35812 -65.79634 L156.56427 -63.824153 L156.57422 -63.444676 L156.66456 -60.516909 L164.25126 -60.537543 L164.27928 -57.537744 L164.37143 -47.817142 L164.37408 -47.566353 L164.37404 -47.267728 L184.09863 -47.505019 Z "  fill="#8DD3C7" fill-rule="evenodd" stroke="#6E6E6E" fill-opacity="1" stroke-opacity="1"  stroke-width="0.7" stroke-linecap="round" stroke-linejoin="round" stroke-miterlimit="10" />
</g>
</g>
<g clip-path="url(#cp_2)">
<g transform="matrix(4.1666667 0 0 -4.1666667 974.4075 826.77)">
<path d="M139.85903 -53.180724 L139.54342 -53.089094 L139.15703 -53.082859 L139.1508 -53.282288 L139.50602 -53.631285 L139.26921 -54.254495 L139.26921 -54.915098 L139.10717 -55.345111 L138.40917 -55.419898 L137.89814 -55.812519 L137.66756 -56.080498 L137.74234 -56.429494 L137.89814 -56.747334 L138.91397 -56.784727 L139.30531 -56.94548 L139.43798 -57.279747 L139.56862 -57.590113 L139.25674 -57.800559 L138.98253 -58.074769 L139.06355 -58.461162 L139.60574 -59.046978 L139.91735 -59.283797 L140.06915 -59.145189 L140.15499 -59.549012 L140.29374 -60.320699 L140.28339 -60.633069 L140.33273 -60.885829 L140.52452 -62.372116 L140.2296 -62.335542 L135.65797 -62.248476 L135.6493 -53.882617 L135.70626 -52.841874 L135.72248 -52.617567 L139.05969 -52.602743 L139.85903 -53.180724 Z "  fill="#BEBADA" fill-rule="evenodd" stroke="#6E6E6E" fill-opacity="1" stroke-opacity="1"  stroke-width="0.7" stroke-linecap="round" stroke-linejoin="round" stroke-miterlimit="10" />
</g>
</g>
<g clip-path="url(#cp_2)">
<g transform="matrix(4.1666667 0 0 -4.1666667 974.4075 826.77)">
<path d="M169.97763 -91.504516 L169.72789 -91.939805 L169.6942 -93.164421 L169.64398 -93.344042 L169.29162 -93.057006 L169.31883 -93.467458 L169.33875 -94.228419 L169.34325 -94.453644 L169.34833 -94.667443 L169.40325 -98.910014 L166.51927 -98.924975 L164.27038 -98.938078 L164.35325 -94.059857 L159.36727 -93.93838 L159.46319 -85.93896 L156.96526 -85.904569 L148.63653 -85.789762 L148.0802 -85.783643 L148.08126 -78.108791 L148.01519 -77.883805 L144.12061 -77.958935 L143.8814 -75.528465 L143.84912 -75.151184 L143.70633 -72.990618 L145.85743 -73.055861 L145.56394 -72.3475 L145.58183 -71.967313 L146.13472 -71.976212 L146.92421 -71.984945 L148.15905 -71.998568 L148.23695 -71.21718 L148.24542 -70.778688 L148.60329 -70.777085 L148.84231 -70.722552 L149.03477 -70.611384 L149.15171 -70.278014 L150.92895 -70.25038 L150.87994 -69.98032 L150.81895 -69.845929 L151.0663 -69.633154 L151.05268 -69.440387 L150.58527 -69.247508 L150.64788 -68.941254 L150.8392 -68.911475 L150.96479 -68.265364 L151.4551 -68.280423 L152.12992 -68.262497 L152.48768 -68.269167 L153.06334 -68.2737 L153.28302 -68.083371 L153.44723 -68.083518 L153.72144 -68.432518 L154.22624 -68.32034 L154.45683 -68.395124 L154.57524 -68.594552 L154.30102 -68.980941 L154.30102 -69.21153 L154.57524 -69.52625 L154.30102 -69.996773 L154.30102 -70.308379 L154.49422 -70.46418 L155.11743 -70.308379 L155.89644 -70.308379 L157.1117 -71.922493 L156.27037 -72.321347 L156.42617 -72.632952 L157.04938 -72.713967 L157.12416 -73.10036 L156.81256 -73.49298 L156.80633 -73.87937 L158.40175 -75.169416 L158.75074 -75.449859 L159.29294 -75.605661 L159.84136 -75.456093 L160.84968 -74.60861 L161.21162 -74.994041 L160.9943 -78.029948 L160.98807 -79.587971 L161.44924 -81.071212 L162.60841 -82.710254 L162.9948 -83.489267 L162.44015 -84.268279 L162.52116 -84.735686 L163.06335 -85.284109 L164.07295 -85.601947 L164.54036 -86.069355 L165.07009 -88.020001 L165.76808 -88.724229 L166.5097 -89.244608 L167.16408 -90.213699 L167.78728 -90.7185 L168.32948 -91.154746 L169.49488 -91.31678 L169.97763 -91.504516 Z "  fill="#80B1D3" fill-rule="evenodd" stroke="#6E6E6E" fill-opacity="1" stroke-opacity="1"  stroke-width="0.7" stroke-linecap="round" stroke-linejoin="round" stroke-miterlimit="10" />
</g>
</g>
<g clip-path="url(#cp_2)">
<g transform="matrix(4.1666667 0 0 -4.1666667 974.4075 826.77)">
<path d="M213.56603 -139.28373 L214.0467 -139.68456 L214.49183 -140.15903 L215.06797 -140.79611 L215.47381 -141.42818 L215.45384 -142.07025 L209.86718 -142.09622 L209.6546 -142.11539 L209.60218 -141.35938 L209.49444 -139.41845 L212.90457 -139.21136 L213.56603 -139.28373 Z "  fill="#FDB462" fill-rule="evenodd" stroke="#6E6E6E" fill-opacity="1" stroke-opacity="1"  stroke-width="0.7" stroke-linecap="round" stroke-linejoin="round" stroke-miterlimit="10" />
</g>
</g>
<g clip-path="url(#cp_2)">
<g transform="matrix(4.1666667 0 0 -4.1666667 974.4075 826.77)">
<path d="M221.35217 -142.75029 L221.50797 -143.06189 L220.64794 -143.05566 L220.42981 -142.99957 L219.94994 -142.89986 L219.47942 -143.08994 L219.32673 -142.81884 L219.40775 -141.88402 L219.64457 -141.65344 L219.95618 -142.03983 L221.35217 -142.75029 Z M213.56603 -139.28373 L212.90457 -139.21136 L209.49444 -139.41845 L209.60218 -141.35938 L209.6546 -142.11539 L209.86718 -142.09622 L215.45384 -142.07025 L215.47381 -141.42818 L215.06797 -140.79611 L214.49183 -140.15903 L214.0467 -139.68456 L213.56603 -139.28373 L213.89234 -139.21045 L213.97336 -138.74305 L213.81756 -137.9578 L213.97959 -137.65243 L214.2912 -137.65243 L214.59657 -138.20085 L215.21978 -138.97986 L215.68719 -139.06088 L215.9988 -138.67449 L216.38518 -138.59971 L216.77781 -138.2881 L217.01463 -138.4439 L217.1642 -138.83653 L218.09278 -140.23875 L218.94658 -140.71239 L219.17716 -141.26081 L218.85933 -142.501 L218.5041 -143.71003 L219.55732 -143.36726 L220.10575 -143.36726 L221.11535 -143.60408 L221.42695 -143.91569 L221.26492 -144.3831 L220.56069 -144.76948 L219.4358 -144.45476 L219.70689 -144.84427 L220.3301 -145.23689 L220.55242 -145.46248 L171.25532 -165.85559 L171.32013 -153.18544 L171.56339 -141.41374 L171.56193 -128.70346 L171.55814 -116.27579 L182.02894 -116.34549 L189.41847 -116.36535 L189.57148 -116.37793 L191.17205 -116.53838 L191.36311 -116.55895 L191.60749 -116.54055 L192.5092 -116.56525 L193.5362 -116.56689 L195.37588 -116.57333 L197.94441 -118.08987 L199.03502 -119.19295 L199.24068 -119.6105 L199.3217 -119.77254 L199.73302 -120.59518 L200.35 -121.06882 L202.06382 -121.54245 L202.7774 -122.04414 L203.14821 -122.72032 L203.14198 -123.86703 L203.14198 -124.12255 L203.99577 -124.67097 L204.53173 -125.6868 L204.59405 -126.90829 L204.60652 -127.08902 L204.20767 -128.09862 L204.75609 -128.64705 L206.61949 -129.35751 L207.5543 -129.51954 L207.94692 -129.12692 L208.10273 -128.35414 L207.95316 -127.41309 L207.03704 -123.82963 L206.65688 -121.64217 L206.8937 -121.18099 L207.2053 -121.02519 L207.51691 -121.3368 L208.58883 -125.08229 L208.57636 -126.95192 L209.03754 -128.43516 L209.73554 -129.13938 L210.35875 -129.53201 L210.81992 -129.99941 L210.89471 -131.09003 L210.85731 -131.73817 L210.80746 -132.64805 L210.57687 -132.64805 L210.42107 -132.33645 L210.19048 -132.09963 L210.02844 -132.33645 L210.41483 -133.42707 L212.34678 -136.86095 L212.81419 -137.25357 L213.04478 -137.72098 L212.80796 -137.9578 L212.57114 -137.95157 L212.49635 -138.18839 L213.56603 -139.28373 Z "  fill="#FFFFB3" fill-rule="evenodd" stroke="#6E6E6E" fill-opacity="1" stroke-opacity="1"  stroke-width="0.7" stroke-linecap="round" stroke-linejoin="round" stroke-miterlimit="10" />
</g>
</g>
<g clip-path="url(#cp_2)">
<g transform="matrix(4.1666667 0 0 -4.1666667 974.4075 826.77)">
<path d="M171.56339 -141.41374 L171.32013 -153.18544 L171.25532 -165.85559 L147.14263 -175.83363 L144.08349 -175.74301 L144.03733 -170.78724 L141.72168 -170.74834 L141.73099 -167.41029 L141.79103 -166.41186 L142.2278 -165.07883 L141.90758 -162.84497 L144.26676 -162.99243 L144.21137 -162.17425 L144.35268 -162.0026 L145.17109 -160.98624 L145.72172 -160.37637 L146.08882 -160.47153 L146.76456 -159.43381 L149.43342 -159.91204 L148.45543 -159.44683 L149.54712 -157.49524 L149.85444 -157.14178 L151.47769 -157.89943 L151.88477 -155.4276 L153.94398 -155.20949 L153.98435 -149.86528 L151.87564 -149.83204 L151.7708 -146.65626 L152.93704 -146.45759 L153.06861 -144.93959 L154.01145 -144.77797 L154.2391 -134.65786 L163.43671 -134.28141 L163.72499 -134.55258 L165.80549 -136.49293 L166.95481 -137.56777 L166.86355 -137.95273 L163.89043 -138.01372 L164.10419 -141.57374 L162.83724 -141.72945 L162.93056 -143.79512 L163.83849 -143.94742 L164.13235 -144.19578 L164.09431 -145.12033 L167.18974 -145.28265 L167.29664 -144.55939 L167.34937 -144.18996 L168.40167 -144.2113 L168.39868 -140.80732 L168.3374 -140.3307 L168.57651 -140.08999 L169.63591 -140.11969 L169.81163 -141.32429 L171.56339 -141.41374 Z "  fill="#FB8072" fill-rule="evenodd" stroke="#6E6E6E" fill-opacity="1" stroke-opacity="1"  stroke-width="0.7" stroke-linecap="round" stroke-linejoin="round" stroke-miterlimit="10" />
</g>
</g>
<g clip-path="url(#cp_2)">
<g transform="matrix(4.1666667 0 0 -4.1666667 974.4075 826.77)">
<path d="M224.41213 -138.9487 L226.18827 -141.75938 L227.1137 -142.74863 L225.93869 -143.23455 L223.46485 -140.73732 L222.92265 -140.57528 L222.92265 -140.88689 L225.31187 -143.49377 L224.834 -143.69139 L223.5334 -142.21432 L222.23712 -141.17357 L221.28361 -140.41325 L221.13404 -140.10164 L221.28984 -139.94584 L222.06262 -140.33846 L222.45525 -140.02686 L222.07509 -138.15723 L221.38333 -136.82979 L221.85073 -136.5992 L222.58924 -136.72073 L223.97588 -138.41275 L224.41213 -138.9487 Z M220.84114 -135.34655 L220.52953 -135.81396 L220.29582 -135.64569 L219.91255 -134.87291 L219.83777 -134.2497 L220.14937 -134.10013 L220.77258 -134.64856 L220.84114 -135.34655 Z M217.66276 -133.46446 L217.73132 -134.24347 L217.50073 -134.23724 L217.0489 -133.56106 L216.57215 -132.36761 L216.65316 -131.9002 L217.03955 -132.36761 L217.66276 -133.46446 Z M179.02999 -84.89772 L178.71838 -85.128306 L178.02039 -84.735686 L177.24761 -84.031458 L176.6244 -83.171428 L176.33404 -82.314521 L177.53697 -82.012073 L177.74479 -81.956331 L178.2859 -81.818294 L178.34446 -82.242846 L177.79603 -83.177661 L178.02662 -83.800871 L178.81498 -84.452124 L179.02999 -84.89772 Z M183.87856 -81.102373 L183.64797 -81.33919 L182.55736 -81.096141 L182.26305 -80.801832 L183.74166 -80.389333 L183.87856 -81.102373 Z M167.03621 -76.658887 L167.67734 -77.408265 L166.99581 -76.970493 L167.03621 -76.658887 Z M164.12281 -74.134887 L163.81121 -74.284457 L163.03842 -73.736032 L161.87302 -72.564397 L161.71722 -72.252793 L161.67983 -71.978579 L160.6453 -70.595054 L159.56091 -69.460814 L159.40511 -69.230227 L159.21192 -68.681801 L158.35812 -67.784379 L157.65389 -67.117544 L157.30489 -66.41955 L155.90891 -65.085879 L155.71571 -64.618472 L155.87151 -64.387885 L156.22051 -64.387885 L156.56951 -64.662097 L157.73491 -66.182731 L158.00912 -66.693763 L158.74451 -67.354366 L159.33033 -67.940182 L160.06571 -69.230227 L162.08492 -71.984814 L162.42145 -72.564397 L163.43105 -73.43066 L164.12281 -74.134887 Z M-5.2424863 -64.901356 L-5.2509228 -65.795336 L-7.6489146 -63.608494 L-5.2298813 -63.643173 L-5.2424863 -64.901356 Z M139.57458 -57.214742 L139.56862 -57.590113 L139.43798 -57.279747 L139.30531 -56.94548 L139.57458 -57.214742 Z M161.13568 -32.167673 L177.36646 -32.49279 L177.58564 -32.477009 L178.72476 -32.493441 L179.18353 -32.492899 L180.61357 -32.535015 L180.75628 -32.735061 L181.53218 -33.53277 L181.69109 -33.202468 L181.88429 -33.084058 L182.23952 -33.202468 L182.97491 -33.831909 L182.89389 -34.374101 L183.08708 -34.648315 L183.3613 -35.234132 L184.3709 -36.168946 L184.3709 -36.517944 L184.48931 -36.873173 L184.40829 -37.103761 L183.97827 -37.103761 L183.39246 -37.22217 L183.12448 -37.415365 L183.08085 -37.72697 L183.62928 -38.075968 L184.67627 -39.129193 L185.37426 -39.989223 L185.41166 -40.300828 L185.25586 -40.612432 L185.25586 -41.005053 L185.67964 -41.509854 L187.43086 -42.176689 L188.63988 -42.4509 L189.02627 -42.612936 L189.33788 -42.924541 L189.37527 -43.310932 L189.25686 -43.66616 L189.21947 -44.170961 L189.10106 -44.600974 L189.10106 -45.261578 L188.78946 -45.884788 L188.47785 -46.04059 L187.77362 -46.034358 L187.07563 -45.685361 L186.8762 -45.797538 L186.76402 -45.996965 L186.14081 -46.146535 L185.82297 -46.345962 L185.74819 -46.613942 L185.82297 -47.081349 L185.66717 -47.237152 L185.00657 -47.237152 L184.85344 -47.498489 L184.28629 -47.506893 L184.09863 -47.505019 L164.37404 -47.267728 L164.37408 -47.566353 L164.37143 -47.817142 L164.27928 -57.537744 L164.25126 -60.537543 L156.66456 -60.516909 L156.57422 -63.444676 L156.56427 -63.824153 L156.22674 -63.453072 L155.91514 -63.33466 L155.44773 -63.372053 L155.13613 -63.721051 L154.9367 -63.721051 L154.0829 -63.172627 L150.62409 -60.48036 L150.15668 -60.206147 L149.49608 -59.657724 L149.0349 -59.40844 L148.60489 -59.184085 L148.13748 -58.598267 L147.75109 -57.975056 L147.43948 -57.700843 L146.46728 -57.077633 L145.68827 -56.298623 L144.95288 -55.475985 L144.60388 -54.541171 L144.41068 -54.347976 L143.86226 -54.615957 L143.58805 -54.185941 L142.73425 -53.992747 L142.03626 -54.067531 L141.52834 -53.833828 L141.72465 -53.44432 L141.95524 -53.244896 L141.68726 -52.702701 L141.68726 -51.961082 L141.45667 -51.80528 L141.30087 -51.92369 L140.94564 -52.621686 L140.63403 -52.852273 L140.40345 -52.970683 L140.24141 -53.244896 L139.85903 -53.180724 L139.05969 -52.602743 L135.72248 -52.617567 L135.70626 -52.841874 L135.6493 -53.882617 L135.65797 -62.248476 L140.2296 -62.335542 L140.52452 -62.372116 L140.33273 -60.885829 L140.28339 -60.633069 L140.29374 -60.320699 L140.15499 -59.549012 L140.06915 -59.145189 L140.34736 -58.891176 L141.86799 -58.9348 L142.25438 -58.860014 L142.8402 -58.860014 L143.3076 -59.015817 L143.6566 -59.371047 L143.76878 -59.875847 L143.45717 -60.380646 L143.36837 -60.897913 L143.45717 -61.514888 L143.88096 -61.938672 L144.13647 -61.941786 L144.04299 -61.39648 L144.58518 -60.929072 L144.89679 -60.77327 L145.24579 -60.891678 L145.52 -61.440101 L145.90639 -61.714315 L146.1806 -62.14433 L146.45481 -62.337525 L147.07179 -62.611738 L147.83211 -63.315964 L148.62981 -64.057584 L149.91363 -64.84283 L150.76742 -65.659233 L151.19121 -66.170266 L151.85181 -67.60988 L152.31922 -68.077288 L153.28302 -68.083371 L153.06334 -68.2737 L152.48768 -68.269167 L152.12992 -68.262497 L151.4551 -68.280423 L150.96479 -68.265364 L150.8392 -68.911475 L150.64788 -68.941254 L150.58527 -69.247508 L151.05268 -69.440387 L151.0663 -69.633154 L150.81895 -69.845929 L150.87994 -69.98032 L150.92895 -70.25038 L149.15171 -70.278014 L149.03477 -70.611384 L148.84231 -70.722552 L148.60329 -70.777085 L148.24542 -70.778688 L148.23695 -71.21718 L148.15905 -71.998568 L146.92421 -71.984945 L146.13472 -71.976212 L145.58183 -71.967313 L145.56394 -72.3475 L145.85743 -73.055861 L143.70633 -72.990618 L143.84912 -75.151184 L143.8814 -75.528465 L144.12061 -77.958935 L148.01519 -77.883805 L148.08126 -78.108791 L148.0802 -85.783643 L148.63653 -85.789762 L156.96526 -85.904569 L159.46319 -85.93896 L159.36727 -93.93838 L164.35325 -94.059857 L164.27038 -98.938078 L166.51927 -98.924975 L169.40325 -98.910014 L169.34833 -94.667443 L169.34325 -94.453644 L169.33875 -94.228419 L169.31883 -93.467458 L169.29162 -93.057006 L169.64398 -93.344042 L169.6942 -93.164421 L169.72789 -91.939805 L169.97763 -91.504516 L170.50448 -91.709403 L172.52368 -93.977887 L173.60806 -94.837916 L175.24087 -95.080968 L175.93887 -95.554607 L176.19438 -97.125097 L176.31902 -97.891643 L176.86122 -98.359051 L177.01702 -98.209481 L176.7989 -97.418005 L176.71165 -97.11263 L176.86745 -96.801026 L177.33486 -96.807259 L178.50649 -97.125097 L184.01567 -100.50289 L184.63888 -101.05132 L185.02527 -101.67453 L185.87907 -102.53456 L186.80765 -103.23878 L187.43086 -103.86823 L188.50901 -106.28628 L189.28179 -107.30211 L189.43136 -108.47375 L189.89254 -109.40856 L190.19791 -110.65498 L191.0517 -111.36544 L192.36045 -113.9393 L192.90264 -114.79933 L194.06804 -115.81516 L194.94677 -116.31996 L195.37588 -116.57333 L193.5362 -116.56689 L192.5092 -116.56525 L191.60749 -116.54055 L191.36311 -116.55895 L191.17205 -116.53838 L189.57148 -116.37793 L189.41847 -116.36535 L182.02894 -116.34549 L171.55814 -116.27579 L171.56193 -128.70346 L171.56339 -141.41374 L169.81163 -141.32429 L169.63591 -140.11969 L168.57651 -140.08999 L168.3374 -140.3307 L168.39868 -140.80732 L168.40167 -144.2113 L167.34937 -144.18996 L167.29664 -144.55939 L167.18974 -145.28265 L164.09431 -145.12033 L164.13235 -144.19578 L163.83849 -143.94742 L162.93056 -143.79512 L162.83724 -141.72945 L164.10419 -141.57374 L163.89043 -138.01372 L166.86355 -137.95273 L166.95481 -137.56777 L165.80549 -136.49293 L163.72499 -134.55258 L163.43671 -134.28141 L154.2391 -134.65786 L141.94668 -135.08166 L141.64879 -135.09253 L141.32695 -131.15628 L141.30953 -130.95815 L141.22604 -129.88929 L137.62659 -129.94378 L137.42472 -129.94704 L129.33329 -130.06883 L129.21754 -132.26665 L121.71135 -132.356 L121.70956 -130.13603 L119.04457 -130.09146 L119.02005 -127.76244 L99.306744 -127.6187 L99.174104 -125.9784 L96.388387 -125.862 L96.242545 -126.38884 L87.315269 -126.27074 L87.337573 -118.7858 L84.330416 -118.61017 L84.318153 -114.40697 L76.10148 -114.22596 L72.282161 -114.14789 L71.502226 -114.13483 L65.081896 -113.764 L65.078118 -106.75116 L64.858692 -106.2334 L59.79646 -106.48186 L59.75486 -108.23918 L57.844263 -108.44884 L57.692986 -107.02148 L54.475349 -107.03092 L53.64441 -106.18943 L53.813385 -105.28266 L53.204126 -105.01792 L53.159229 -104.49902 L52.536875 -104.42463 L52.425089 -103.69347 L51.484553 -103.72763 L51.177868 -102.50528 L50.539394 -102.34541 L50.587134 -101.66426 L46.744196 -101.88189 L46.619628 -101.81571 L46.36463 -101.12202 L45.857734 -101.0519 L45.867687 -100.33835 L45.190382 -100.44738 L45.215121 -99.688993 L44.333466 -99.7612 L44.081786 -97.075432 L42.970038 -97.194269 L42.859428 -93.893779 L40.449848 -93.979041 L40.568045 -92.97391 L40.564225 -92.759747 L38.429705 -92.594449 L38.314557 -92.607367 L37.825313 -98.892755 L35.322552 -98.86271 L35.206751 -98.215958 L34.196549 -98.247963 L34.060515 -98.252255 L32.855845 -98.29045 L32.92884 -97.813385 L32.08129 -97.671658 L32.059087 -96.548126 L32.042388 -96.249242 L29.663669 -96.330736 L29.579126 -97.526301 L-1.9649078 -68.792073 L2.2314786 -68.811938 L2.3307403 -68.221684 L11.438565 -68.56501 L11.382311 -70.221654 L12.65892 -70.235196 L15.879065 -70.283127 L19.76036 -70.341887 L20.730326 -70.357543 L20.880411 -71.530791 L26.782894 -71.564348 L26.841716 -73.259395 L26.285649 -73.465429 L26.297131 -75.781336 L26.685396 -75.860426 L26.692394 -76.822994 L26.698704 -77.581833 L26.70256 -78.509709 L26.699839 -78.948287 L26.683787 -79.582769 L27.075703 -79.664678 L27.116536 -80.936777 L27.123191 -81.169694 L27.132994 -81.468485 L28.23974 -81.445024 L28.418015 -83.308089 L30.487147 -83.412102 L31.127666 -83.061699 L31.264351 -83.060894 L32.37806 -83.06373 L33.435682 -83.065728 L33.705033 -82.728671 L35.404097 -82.396098 L35.556268 -80.999968 L37.498077 -81.004048 L37.510209 -77.935304 L36.328689 -77.83881 L36.281696 -76.495966 L35.189933 -76.440207 L35.324946 -74.552553 L37.700842 -74.562825 L37.826408 -70.601825 L34.891371 -70.560012 L35.089428 -67.642195 L36.096328 -67.299712 L36.67098 -67.21782 L36.617266 -68.332652 L41.610219 -68.194826 L41.612727 -67.758324 L42.817963 -67.635326 L42.959237 -66.99013 L44.413228 -67.200398 L44.422354 -68.305722 L44.981288 -68.368984 L45.09874 -69.195193 L47.065418 -69.328677 L47.386781 -70.73907 L48.290677 -70.751647 L48.477805 -66.308531 L47.427605 -66.531588 L47.319095 -66.107401 L46.722082 -65.998604 L46.651894 -65.540303 L45.566977 -65.541088 L45.310041 -66.018374 L44.688957 -65.545775 L43.979421 -64.913244 L43.667879 -64.57073 L43.525603 -64.315125 L43.641767 -63.459968 L44.973067 -64.234951 L45.071731 -63.406221 L46.908868 -63.587798 L47.083923 -64.240189 L47.739254 -64.381665 L47.798057 -64.676278 L49.332823 -64.726711 L49.437943 -65.544418 L49.834944 -65.481324 L50.017732 -65.843478 L50.533148 -66.051559 L50.527002 -66.495629 L51.201133 -66.534055 L51.39245 -66.544321 L51.61476 -66.555012 L51.909783 -66.35052 L52.331294 -66.295358 L52.439078 -67.074288 L54.025362 -67.281124 L54.091321 -67.789239 L54.663738 -67.667522 L54.653949 -68.381083 L55.754201 -68.531277 L55.753387 -70.256258 L55.757468 -70.85741 L59.321585 -70.903231 L59.310962 -71.685377 L59.819102 -71.70059 L59.975508 -72.471835 L62.903099 -72.566849 L62.97005 -74.027004 L66.113537 -73.875901 L66.060535 -73.407484 L66.707921 -73.376647 L66.735215 -72.903761 L68.154003 -72.669095 L68.186469 -71.019732 L67.149927 -71.005902 L65.101914 -70.978488 L64.955304 -65.563563 L62.581635 -65.438771 L62.639669 -62.421262 L59.742531 -62.194272 L59.76831 -58.012931 L57.232598 -58.078877 L57.19592 -52.85523 L58.463684 -52.447074 L58.72744 -52.720207 L59.279988 -52.733267 L59.654929 -52.537419 L60.04161 -52.449821 L60.282761 -52.643643 L61.220195 -52.465799 L61.451991 -52.812619 L61.854929 -52.836778 L62.455048 -52.937736 L62.883648 -53.120213 L63.11053 -53.292343 L63.513993 -53.007453 L64.244055 -52.493445 L64.745234 -52.225794 L64.836588 -51.870174 L64.733943 -51.506406 L64.847763 -51.309763 L65.331655 -51.242121 L65.771752 -50.838518 L66.160831 -50.603295 L66.441477 -50.162903 L66.710154 -49.799259 L66.99972 -49.747007 L67.398092 -49.837562 L67.916646 -49.799448 L68.666914 -49.571094 L69.238547 -49.447056 L69.84169 -49.317191 L70.507864 -49.141036 L71.05321 -48.661851 L71.626398 -48.693698 L72.256373 -48.875953 L73.17927 -48.491803 L73.826718 -48.437288 L74.509877 -48.55992 L75.156268 -48.568419 L75.878808 -48.607007 L76.324559 -48.802707 L76.90741 -49.140855 L77.39745 -49.678721 L77.860477 -50.158022 L78.479222 -50.681614 L79.055171 -51.06398 L79.43063 -51.833136 L79.864249 -52.19562 L80.19807 -52.173628 L80.595723 -52.078322 L81.281694 -52.272223 L81.913776 -52.581819 L82.676126 -52.755201 L83.4143 -52.931025 L83.94777 -53.080638 L84.602309 -53.276838 L85.337345 -53.69856 L85.719499 -53.99448 L86.250301 -54.069885 L86.682997 -54.511951 L87.219396 -54.685109 L87.736612 -54.754772 L88.495131 -54.984098 L88.980346 -55.098373 L89.652324 -55.289848 L90.236222 -55.564032 L90.762451 -56.038414 L91.587896 -56.456295 L92.068951 -56.649462 L92.279812 -56.73181 L92.437162 -56.649267 L92.790858 -56.463187 L93.243059 -56.162635 L93.804553 -56.301361 L94.613135 -56.142471 L94.890777 -50.947193 L99.299232 -50.88868 L99.460244 -51.643855 L103.18178 -51.724574 L105.36055 -49.834836 L106.99425 -51.522613 L109.76267 -49.418077 L110.71783 -49.7761 L111.96999 -49.989407 L112.91021 -50.228706 L114.157 -50.512541 L115.07616 -50.68709 L116.02915 -50.928534 L116.88618 -51.65244 L117.3315 -52.173254 L117.69189 -52.557938 L118.18378 -52.728005 L118.82939 -52.807045 L121.74296 -53.060466 L122.34455 -54.20942 L125.73218 -54.381469 L125.97696 -53.670661 L125.90538 -45.788323 L129.02492 -45.909128 L134.94283 -46.194731 L135.21868 -46.213121 L135.27285 -45.737732 L135.30563 -45.419382 L135.31055 -45.254303 L135.36436 -44.982848 L135.34311 -44.729012 L135.35043 -44.0868 L135.37202 -43.431585 L135.35848 -43.241582 L135.41394 -41.872396 L134.13865 -41.865455 L134.2173 -36.820819 L135.39505 -36.818333 L135.65656 -31.855455 L154.28541 -32.120291 L161.13568 -32.167673 Z "  fill="#BEBADA" fill-rule="evenodd" stroke="#6E6E6E" fill-opacity="1" stroke-opacity="1"  stroke-width="0.7" stroke-linecap="round" stroke-linejoin="round" stroke-miterlimit="10" />
</g>
</g>
<g clip-path="url(#cp_2)">
<g transform="matrix(4.1666667 0 0 -4.1666667 974.4075 826.77)">
<path d="M154.2391 -134.65786 L154.01145 -144.77797 L153.06861 -144.93959 L152.93704 -146.45759 L151.7708 -146.65626 L151.87564 -149.83204 L153.98435 -149.86528 L153.94398 -155.20949 L151.88477 -155.4276 L151.47769 -157.89943 L149.85444 -157.14178 L149.54712 -157.49524 L148.45543 -159.44683 L149.43342 -159.91204 L146.76456 -159.43381 L146.08882 -160.47153 L145.72172 -160.37637 L145.17109 -160.98624 L144.35268 -162.0026 L144.21137 -162.17425 L144.26676 -162.99243 L141.90758 -162.84497 L142.2278 -165.07883 L141.79103 -166.41186 L141.73099 -167.41029 L141.72168 -170.74834 L144.03733 -170.78724 L144.08349 -175.74301 L147.14263 -175.83363 L125.2734 -184.88505 L29.579126 -97.526301 L29.663669 -96.330736 L32.042388 -96.249242 L32.059087 -96.548126 L32.08129 -97.671658 L32.92884 -97.813385 L32.855845 -98.29045 L34.060515 -98.252255 L34.196549 -98.247963 L35.206751 -98.215958 L35.322552 -98.86271 L37.825313 -98.892755 L38.314557 -92.607367 L38.429705 -92.594449 L40.564225 -92.759747 L40.568045 -92.97391 L40.449848 -93.979041 L42.859428 -93.893779 L42.970038 -97.194269 L44.081786 -97.075432 L44.333466 -99.7612 L45.215121 -99.688993 L45.190382 -100.44738 L45.867687 -100.33835 L45.857734 -101.0519 L46.36463 -101.12202 L46.619628 -101.81571 L46.744196 -101.88189 L50.587134 -101.66426 L50.539394 -102.34541 L51.177868 -102.50528 L51.484553 -103.72763 L52.425089 -103.69347 L52.536875 -104.42463 L53.159229 -104.49902 L53.204126 -105.01792 L53.813385 -105.28266 L53.64441 -106.18943 L54.475349 -107.03092 L57.692986 -107.02148 L57.844263 -108.44884 L59.75486 -108.23918 L59.79646 -106.48186 L64.858692 -106.2334 L65.078118 -106.75116 L65.081896 -113.764 L71.502226 -114.13483 L72.282161 -114.14789 L76.10148 -114.22596 L84.318153 -114.40697 L84.330416 -118.61017 L87.337573 -118.7858 L87.315269 -126.27074 L96.242545 -126.38884 L96.388387 -125.862 L99.174104 -125.9784 L99.306744 -127.6187 L119.02005 -127.76244 L119.04457 -130.09146 L121.70956 -130.13603 L121.71135 -132.356 L129.21754 -132.26665 L129.33329 -130.06883 L137.42472 -129.94704 L137.62659 -129.94378 L141.22604 -129.88929 L141.30953 -130.95815 L141.32695 -131.15628 L141.64879 -135.09253 L141.94668 -135.08166 L154.2391 -134.65786 Z "  fill="#FFFFB3" fill-rule="evenodd" stroke="#6E6E6E" fill-opacity="1" stroke-opacity="1"  stroke-width="0.7" stroke-linecap="round" stroke-linejoin="round" stroke-miterlimit="10" />
</g>
</g>
</g>
<!-- Begin_Label-->
<clipPath id="cp_3">
<path d="M1948.815 1653.54 L1948.815 0 L0 4.5474735e-13 L0 1653.54 Z " />
</clipPath>
<g clip-path="url(#cp_3)">
<g id="EmbdFile_1" transform="matrix(1 0 0 1 0 4.5474735e-13)">
<g>
<g color-interpolation="linearRGB" transform="scale(1,1)">
</g>
</g>
</g>
</g>
<!-- End_Label-->
</g>
</g>
</svg>
