<?xml version="1.0" encoding="utf-8" standalone="no"?>
<!DOCTYPE svg PUBLIC "-//W3C//DTD SVG 1.1//EN" "http://www.w3.org/Graphics/SVG/1.1/DTD/svg11.dtd">
<svg version="1.1" xmlns="http://www.w3.org/2000/svg" xmlns:xlink="http://www.w3.org/1999/xlink" width="468pt" height="397pt" viewBox="0 0 468 397" xml:space="preserve" enable-background="new 0 0 468 397">
<g color-interpolation="linearRGB" transform="scale(0.24,0.24)">
<g>
	<rect x="0" y="0" width="1948.815" height="1653.54" fill="#FFFFFF" fill-opacity="0" />
</g>
<g id="Map_Frame">
<g id="rivers">
<clipPath id="cp_2">
<path d="M1948.815 1653.54 L1948.815 0 L0 4.5474735e-13 L0 1653.54 Z " />
</clipPath>
<g clip-path="url(#cp_2)">
<g transform="matrix(4.1666667 0 0 -4.1666667 974.4075 826.77)">
<path d="M-54.044241 154.10947 L-54.293524 155.13153 L-54.318453 155.59894 L-53.988152 156.40911 L-53.732636 157.21928 L-53.583065 158.38469 L-53.607994 158.85209 "  stroke="#002673" fill="none" stroke-opacity="1" stroke-width="1" stroke-linecap="round" stroke-linejoin="round" stroke-miterlimit="10" />
</g>
</g>
<g clip-path="url(#cp_2)">
<g transform="matrix(4.1666667 0 0 -4.1666667 974.4075 826.77)">
<path d="M-54.044241 154.10947 L-54.363639 154.27932 L-55.122394 154.68282 L-55.563891 154.85016 L-55.895174 154.97573 L-56.156922 155.18139 L-56.225476 155.56778 L-56.100833 155.95417 L-55.652122 156.76434 "  stroke="#002673" fill="none" stroke-opacity="1" stroke-width="1" stroke-linecap="round" stroke-linejoin="round" stroke-miterlimit="10" />
</g>
</g>
<g clip-path="url(#cp_2)">
<g transform="matrix(4.1666667 0 0 -4.1666667 974.4075 826.77)">
<path d="M-188.86945 134.60923 L-188.47683 134.63416 L-188.20261 134.54691 L-187.54824 134.34125 L-186.73807 134.00472 L-185.68485 134.05458 L-185.0928 134.50952 L-184.99931 135.05171 L-184.89337 135.3789 L-184.30132 136.36045 L-183.61579 137.15816 L-182.93026 138.07428 L-182.75576 138.73488 L-182.50648 139.42664 L-181.90819 139.91898 L-181.08556 140.16826 L-180.61192 140.39262 L-179.93262 140.99713 L-179.33434 141.44584 L-178.3559 141.73252 L-178.15647 141.88209 L-177.14064 143.41519 L-176.23075 144.05709 L-175.1713 144.33754 L-174.72882 144.75509 L-174.28011 145.55903 L-174.03082 146.10122 L-173.73168 147.223 L-173.72545 147.49721 L-173.82516 148.00201 L-174.08691 148.40087 L-174.3175 148.63768 L-175.3458 149.48525 L-175.4829 150.03368 L-175.35826 150.38267 L-175.16506 150.49485 L-174.64157 151.02458 L-174.6291 151.49199 L-175.19622 152.20868 L-175.29594 152.67608 L-175.32087 153.22451 L-175.18999 153.9225 L-174.72259 155.19385 L-174.1617 155.9604 L-173.83139 156.49636 L-174.02147 156.7176 L-174.69142 156.4839 L-175.11832 156.49324 L-175.18376 157.11957 L-174.85969 157.57451 L-174.41721 157.91728 L-173.89372 158.18526 L-173.63197 158.32237 L-173.07731 158.69629 L-171.95865 159.68719 L-171.43827 160.25432 L-171.22638 160.71549 L-171.03941 161.99307 L-170.47853 162.52903 L-170.16692 162.51657 L-169.78676 162.31091 L-169.48139 161.87466 L-169.18225 161.55682 L-168.12903 161.5319 L-167.81742 161.60045 L-167.38117 161.93698 L-165.34951 165.11535 L-164.84471 166.39293 L-164.68267 166.7357 L-164.38353 167.70167 L-164.32121 168.55547 L-164.45832 169.34071 L-164.75123 169.97016 L-164.66398 170.28176 L-164.47078 170.31292 L-164.00961 170.06987 L-163.66061 170.02001 L-163.22436 170.31915 L-163.01247 170.93613 L-163.03117 171.67775 L-163.25552 171.99559 L-163.60452 172.16386 L-164.07193 172.13893 L-164.73876 171.99559 L-165.24356 172.05168 L-165.46792 172.2885 L-165.45546 172.83692 L-165.2498 173.14229 L-164.43962 174.32639 L-163.80395 174.81873 L-162.57623 175.56658 L-161.48561 175.53542 L-160.79385 175.20512 L-160.32644 175.25186 L-160.1644 175.49803 L-160.10208 176.27704 L-159.57859 176.96257 L-159.47887 177.85999 L-159.31684 178.04695 L-158.80581 178.3087 L-158.1826 178.21522 L-157.79621 178.00956 L-157.45967 177.52969 L-157.19793 177.25548 L-156.45631 177.23055 L-154.21898 177.91608 L-153.59577 177.89739 L-152.9414 177.68549 L-152.43037 177.67303 L-151.40207 178.3087 L-150.93467 178.37102 L-150.39247 178.20276 L-149.62593 177.75405 L-148.48545 176.75068 L-147.7563 176.33936 L-147.37614 176.02152 L-146.85264 175.18642 L-146.39147 174.89975 L-145.68724 174.92467 L-144.75243 174.97453 L-143.92979 175.06801 L-143.69297 175.18019 L-143.37513 175.56035 L-143.11338 176.48893 L-142.97005 176.81923 L-142.82671 177.1433 L-142.25959 177.90985 L-142.0103 178.56422 L-142.02252 179.07341 L-142.029 179.34323 L-142.12248 180.04746 L-142.12248 181.54122 L-142.12248 181.6865 L-142.378 182.23493 L-143.66804 183.55613 L-144.44705 184.65506 L-145.21983 185.19517 L-146.4164 185.73113 L-147.38237 186.0739 L-149.35795 186.39797 L-149.93753 186.56623 "  stroke="#002673" fill="none" stroke-opacity="1" stroke-width="1" stroke-linecap="round" stroke-linejoin="round" stroke-miterlimit="10" />
</g>
</g>
<g clip-path="url(#cp_2)">
<g transform="matrix(4.1666667 0 0 -4.1666667 974.4075 826.77)">
<path d="M-57.957999 125.49791 L-55.876478 126.14604 L-55.483856 126.40779 L-55.116161 126.86273 L-55.103697 127.33014 L-55.745603 128.28365 L-55.726907 128.94426 L-55.40907 129.16861 L-54.823253 129.23093 L-54.474256 129.14368 L-54.206275 129.01904 L-53.857277 128.97542 L-53.15305 129.07513 L-52.595278 129.3026 L-52.08113 129.7482 L-51.314582 130.70171 L-50.878336 130.95722 L-50.491945 130.86997 L-50.155411 130.51474 L-49.775254 129.99748 L-49.401328 129.59863 L-48.977545 129.23716 L-48.54753 129.29948 L-48.073891 129.59863 L-47.793446 129.98502 L-47.699965 130.4088 L-47.80591 130.91983 L-47.780983 131.73624 L-47.195165 133.35658 L-46.746454 134.20415 L-45.948745 134.76503 L-45.549891 135.2636 L-45.450178 136.1174 L-45.319304 136.57858 L-44.764647 136.99613 L-44.633458 137.20432 L-44.479433 137.4763 L-44.502898 137.88108 L-44.727254 138.35472 L-45.256983 138.87822 L-45.93005 139.23345 L-46.640509 139.61361 L-47.793446 140.07478 L-49.893664 141.6889 L-50.423392 142.24979 L-51.214868 143.47751 L-51.501544 144.26275 L-51.786048 145.31915 L-51.769525 145.8644 L-51.320814 146.74936 L-51.2211 147.52837 L-51.283422 148.0768 L-51.7259 148.98045 L-52.129895 149.66724 L-52.286789 149.93396 L-52.342878 150.13962 L-52.449654 150.50266 L-52.529841 151.03081 L-52.50112 151.35688 L-52.423895 152.23361 L-52.791589 152.98769 L-53.545672 153.82279 L-54.044241 154.10947 "  stroke="#002673" fill="none" stroke-opacity="1" stroke-width="1" stroke-linecap="round" stroke-linejoin="round" stroke-miterlimit="10" />
</g>
</g>
<g clip-path="url(#cp_2)">
<g transform="matrix(4.1666667 0 0 -4.1666667 974.4075 826.77)">
<path d="M-158.05376 73.453135 L-157.84606 73.590762 L-157.02343 73.721637 L-155.58381 73.759029 L-152.31819 73.366407 L-151.53918 73.459888 L-150.75394 73.634387 L-148.08037 74.731236 L-147.2515 75.136323 L-146.81525 75.39807 L-146.53481 75.547641 L-145.24476 75.78446 L-144.34734 75.765765 L-143.34397 75.422999 L-142.19103 74.849646 L-141.49927 74.637755 L-140.06589 74.32615 L-139.09368 74.263829 L-138.11524 74.388471 L-135.70342 74.288757 L-135.26717 74.513113 L-134.32613 74.756164 L-133.70292 74.743701 L-132.85535 74.488184 L-132.46273 74.438328 L-131.95793 74.538042 L-131.4469 74.718772 L-129.78916 75.535177 L-129.55234 75.60373 L-128.38694 75.535177 L-127.0595 75.460392 L-126.5547 75.566338 L-126.11845 75.747068 L-122.35427 78.102801 L-121.88686 78.289764 L-121.3322 78.507888 L-120.59058 78.682386 L-119.18213 78.800796 L-118.55892 78.90051 L-117.57425 79.224579 L-116.87625 79.243275 L-115.56128 78.819492 L-114.74487 78.763404 L-113.80383 79.006455 L-113.41121 79.075008 L-111.94666 79.897646 L-109.67195 80.576944 L-108.8867 80.670426 L-108.33828 80.813764 L-107.55303 81.106673 L-106.63692 81.898149 L-105.84544 82.265842 L-104.87323 82.321932 L-104.55539 82.502662 L-103.20303 83.562119 L-102.26198 83.886188 L-101.6637 84.222721 L-101.22745 84.596647 L-100.70396 85.363195 L-99.825233 86.198296 L-99.233183 86.379027 L-98.485332 86.709328 L-98.161262 87.052094 L-97.718783 87.737624 L-97.238912 88.117783 L-96.927307 88.148943 L-96.229311 88.011837 L-95.761904 88.117783 L-94.845786 88.753456 L-94.291129 89.08999 L-92.782961 90.180606 L-91.894888 91.433258 L-91.405667 92.249663 L-90.925796 92.704607 L-89.729234 93.683046 L-89.405165 94.144221 L-89.068631 95.035411 L-88.781955 95.571372 L-88.227298 95.907905 L-87.604088 96.007619 L-87.329876 96.113564 L-87.205234 96.387776 L-87.117984 98.213781 L-86.83754 98.481762 L-86.245491 98.855687 L-85.341836 99.142363 L-84.868197 99.360487 L-84.307308 99.933841 L-83.827437 100.27037 L-83.0048 100.56328 L-82.724356 100.82503 L-82.481303 101.1678 L-82.362893 102.60741 L-82.138539 103.77281 L-82.132307 105.56142 L-82.313037 106.11608 L-82.288109 106.89509 L-82.126074 107.27525 L-81.334597 107.80498 L-81.047921 108.14774 L-80.86719 109.15734 L-80.655299 109.81172 L-80.293837 110.15448 L-79.664396 110.48478 L-76.853719 113.64446 L-75.862816 114.16795 L-75.856584 114.55434 L-76.062243 115.49539 L-75.981225 115.72598 L-74.946697 116.39904 L-74.367112 116.42397 L-73.899705 116.21831 L-73.513314 116.16845 L-73.045907 116.2744 L-72.84648 116.42397 L-72.522411 116.92254 L-72.229503 117.69532 L-72.185878 119.17233 L-72.285591 119.87655 L-72.204574 120.10714 L-71.843113 120.44991 L-71.606293 120.48107 L-70.571765 119.94511 L-70.14175 119.89525 L-69.19447 120.33773 L-68.689671 120.40628 L-68.178639 120.62441 L-67.935587 120.81137 L-67.443251 121.73372 L-66.838738 122.65607 L-66.115814 123.33537 L-65.249553 123.78408 L-64.931716 124.12061 L-64.433148 125.16137 L-64.439381 126.48881 L-64.115311 126.78795 L-63.523261 127.08709 L-62.850195 127.61682 L-62.451341 127.87857 L-61.865524 128.09669 L-60.930709 128.07176 L-60.737514 127.90973 L-60.475766 127.47348 L-60.332428 126.96245 L-59.964734 126.3704 L-59.540951 126.00894 L-58.774403 125.59762 L-57.957999 125.49791 "  stroke="#002673" fill="none" stroke-opacity="1" stroke-width="1" stroke-linecap="round" stroke-linejoin="round" stroke-miterlimit="10" />
</g>
</g>
<g clip-path="url(#cp_2)">
<g transform="matrix(4.1666667 0 0 -4.1666667 974.4075 826.77)">
<path d="M-67.960515 30.296378 L-67.736159 31.380763 L-67.250056 32.109918 L-66.570758 32.751825 L-65.903923 33.088358 L-63.971973 33.854906 L-63.454708 34.191439 L-63.217888 34.378402 L-62.738017 34.951756 L-61.603775 36.478619 L-61.148833 37.563004 L-60.930709 38.491587 L-61.05535 39.507419 L-61.030423 40.598036 L-60.774906 41.289799 L-60.774906 42.735646 L-61.05535 43.907279 L-61.423045 44.773541 L-62.607143 47.104346 L-63.448476 49.154706 L-63.710225 49.553561 L-63.971973 50.064593 L-65.018965 51.765955 L-65.162304 52.202202 L-65.33057 53.143249 L-65.542462 53.847476 L-65.841602 54.476918 L-65.984941 54.950557 L-66.065958 56.159584 L-66.296546 57.842251 L-66.414955 59.250705 L-66.707864 61.438171 L-66.651775 62.061381 L-66.527133 62.447771 L-66.277849 62.908947 L-66.041029 63.133301 L-64.28981 63.12707 L-63.348763 63.338962 L-63.068319 63.563316 L-62.501197 64.442043 L-61.728418 65.632373 L-61.273474 66.554723 L-61.011726 69.078724 L-60.949406 69.303078 L-60.84346 69.658308 L-60.382284 70.736462 L-60.301267 72.294485 L-60.064447 72.637251 L-59.858788 72.986249 L-59.017455 73.740332 L-57.074558 75.112248 L-56.244171 75.497784 L-55.371957 75.671455 L-54.835717 75.778229 L-52.405199 76.451295 L-51.968952 76.675651 L-51.769525 76.943631 L-51.557634 77.404806 L-51.507777 77.828589 L-51.595027 79.000223 L-51.800686 80.17809 L-51.78199 80.913478 L-51.538937 81.262475 L-50.946888 81.555383 L-50.273821 81.966702 L-50.037002 82.078879 L-50.018306 82.776874 L-49.924824 83.163265 L-49.606987 83.62444 L-49.401328 84.010831 L-49.426257 84.440844 L-50.223965 85.238554 L-50.329911 85.512766 L-50.367304 85.786978 L-50.348607 86.491205 L-50.223965 86.759185 L-49.476113 87.089487 L-49.351471 87.320074 L-49.368945 87.595287 L-49.376399 87.712697 L-49.700469 88.728529 L-50.111787 89.364202 L-50.529338 89.806681 L-50.7163 90.124518 L-50.734997 91.015708 L-50.95312 91.570365 L-51.289653 91.931826 L-51.981417 92.29952 L-53.720172 93.009979 L-54.835717 93.54594 L-55.209643 93.944794 L-55.352981 94.493219 L-55.309356 94.804824 L-54.468024 95.677317 L-54.006848 96.718078 L-53.838582 97.335055 L-53.738868 98.03305 L-53.757565 98.812063 L-53.857277 99.51629 L-53.838582 100.10211 L-53.514513 100.60067 L-53.227836 101.17403 L-53.134355 101.79724 L-53.196676 102.38305 L-53.757565 103.37396 L-53.89467 104.07819 L-53.98192 105.05662 L-54.193811 105.61751 L-54.723539 106.44015 L-55.097465 107.188 L-55.197178 107.77382 L-55.072537 107.92962 L-54.206275 108.33471 L-53.963223 108.67747 L-53.875974 109.14488 L-54.025545 113.70678 L-54.792092 115.63249 L-55.234571 116.50499 L-55.870246 117.60807 L-56.088369 118.31853 L-56.325188 119.57118 L-56.65549 120.40005 L-57.951767 122.81187 L-58.238443 123.6719 L-58.188586 124.29511 L-58.16989 124.95571 L-57.957999 125.49791 "  stroke="#002673" fill="none" stroke-opacity="1" stroke-width="1" stroke-linecap="round" stroke-linejoin="round" stroke-miterlimit="10" />
</g>
</g>
<g clip-path="url(#cp_2)">
<g transform="matrix(4.1666667 0 0 -4.1666667 974.4075 826.77)">
<path d="M133.03087 4.358386 L132.99348 4.8694181 L133.14928 5.5300207 L133.11189 5.9974281 L132.37027 6.8138332 L131.86547 7.1316701 L130.15788 7.6427022 L129.64684 7.9916998 L129.29887 8.8211525 L129.30408 9.2692793 L129.30408 9.6307419 L129.57829 10.758751 L129.54811 10.906304 L129.46611 11.307175 L129.07349 11.500371 L128.44739 11.550613 L128.01043 11.622969 L127.55909 11.97401 L127.0169 12.946218 L126.7772 13.564681 L126.2005 15.052666 L125.85915 15.784693 L125.40279 16.763377 L124.72972 17.744933 L124.18753 18.293358 L123.7949 18.486553 "  stroke="#002673" fill="none" stroke-opacity="1" stroke-width="1" stroke-linecap="round" stroke-linejoin="round" stroke-miterlimit="10" />
</g>
</g>
<g clip-path="url(#cp_2)">
<g transform="matrix(4.1666667 0 0 -4.1666667 974.4075 826.77)">
<path d="M136.28403 -2.3847433 L135.97242 -1.9609604 L135.74184 -1.3751431 L135.58603 -0.51511459 L135.51748 2.4077401 L135.20588 2.8751476 L134.89739 3.130663 L134.27106 3.4609649 "  stroke="#002673" fill="none" stroke-opacity="1" stroke-width="1" stroke-linecap="round" stroke-linejoin="round" stroke-miterlimit="10" />
</g>
</g>
<g clip-path="url(#cp_2)">
<g transform="matrix(4.1666667 0 0 -4.1666667 974.4075 826.77)">
<path d="M-10.81841 -3.556378 L-9.7714172 -3.6186983 L-9.1918318 -3.5065215 L-8.9051557 -3.4504319 L-8.1573039 -3.1575239 L-7.328435 -2.6340269 L-6.6802962 -1.7553014 "  stroke="#002673" fill="none" stroke-opacity="1" stroke-width="1" stroke-linecap="round" stroke-linejoin="round" stroke-miterlimit="10" />
</g>
</g>
<g clip-path="url(#cp_2)">
<g transform="matrix(4.1666667 0 0 -4.1666667 974.4075 826.77)">
<path d="M-60.880852 -9.5952801 L-59.908645 -9.7386188 L-59.204417 -9.6825304 L-55.895174 -9.7697795 L-55.091234 -10.143705 L-54.704843 -10.343132 L-54.025545 -11.140841 L-53.564369 -11.545927 L-53.258996 -11.633176 L-52.398967 -11.651873 L-52.012576 -11.58332 L-51.538937 -11.327804 L-50.616587 -10.492702 L-49.943521 -10.081385 L-47.438217 -9.6015132 L-46.416153 -9.3148359 L-44.80204 -8.6604663 L-44.06042 -8.5981449 L-41.511492 -9.3273009 L-40.152895 -9.4457107 L-38.545013 -9.0219278 L-37.635127 -8.6168418 L-37.086703 -8.5108958 L-36.388707 -8.6480014 L-34.924165 -9.1528015 L-34.338347 -9.1714984 L-33.048303 -8.8910541 L-32.175809 -8.485967 L-31.340709 -7.8440613 L-30.624016 -7.1647629 L-29.215563 -5.4820962 "  stroke="#002673" fill="none" stroke-opacity="1" stroke-width="1" stroke-linecap="round" stroke-linejoin="round" stroke-miterlimit="10" />
</g>
</g>
<g clip-path="url(#cp_2)">
<g transform="matrix(4.1666667 0 0 -4.1666667 974.4075 826.77)">
<path d="M13.935483 -5.7313798 L14.284481 -5.7376117 L15.294081 -6.0367528 L15.954683 -6.0928412 L17.400529 -5.8622546 L18.453754 -5.8497896 L22.055907 -6.5664806 L23.333487 -6.9528709 L27.029121 -8.4485743 L28.032489 -8.8287327 L29.334997 -9.6825304 L30.251116 -10.486471 L30.855629 -11.203162 L30.911718 -11.944781 L30.787076 -12.175369 L30.475471 -12.243922 L29.15115 -12.250154 L28.86759 -12.667705 L28.736716 -13.054095 L29.004696 -13.21613 L29.509496 -13.428021 L30.861862 -13.777019 L31.516231 -13.988909 L32.70033 -14.992278 L33.08672 -15.11692 L33.853269 -15.204169 L34.407925 -15.272722 L35.49231 -15.534471 L36.221466 -15.902164 L36.95062 -16.195072 L37.729633 -16.213769 L39.256497 -16.101591 "  stroke="#002673" fill="none" stroke-opacity="1" stroke-width="1" stroke-linecap="round" stroke-linejoin="round" stroke-miterlimit="10" />
</g>
</g>
<g clip-path="url(#cp_2)">
<g transform="matrix(4.1666667 0 0 -4.1666667 974.4075 826.77)">
<path d="M-66.3662 -10.100331 L-64.582718 -9.6949942 L-63.174264 -9.613977 "  stroke="#002673" fill="none" stroke-opacity="1" stroke-width="1" stroke-linecap="round" stroke-linejoin="round" stroke-miterlimit="10" />
</g>
</g>
<g clip-path="url(#cp_2)">
<g transform="matrix(4.1666667 0 0 -4.1666667 974.4075 826.77)">
<path d="M39.256497 -16.101591 L40.222473 -16.319715 L41.605998 -17.017709 L42.322689 -17.273226 L43.263736 -17.609758 L44.653493 -18.033541 L45.694254 -18.569502 L46.118037 -18.775161 L47.158797 -19.155319 L47.93781 -19.174015 L48.486234 -19.030676 L48.723054 -18.843714 L49.078283 -18.700376 L49.601779 -18.164415 L49.882224 -17.746865 L50.324703 -17.210904 L50.76095 -16.949157 L51.851566 -17.055102 L52.119547 -17.179743 L52.935952 -17.242065 L53.28495 -17.291921 L53.989177 -17.073799 L55.491112 -16.375803 L57.167547 -16.182608 L57.871774 -16.201304 L58.332948 -16.406964 L58.719339 -16.57523 L59.024712 -16.818282 L59.367477 -17.098726 L59.978222 -17.385404 L60.68245 -17.404099 L61.230874 -17.266994 L61.978726 -16.855675 L62.352652 -16.089127 L62.595704 -15.740129 L63.144129 -15.522006 L63.692553 -15.540702 L64.340691 -16.020574 L65.069847 -16.431892 L65.381452 -16.438125 L66.204089 -16.226233 L66.634103 -16.201304 L67.257313 -16.294786 L67.980237 -16.743497 L68.70316 -17.578599 L69.750152 -19.086766 L69.899723 -19.286193 L71.152374 -20.607398 L72.193135 -21.024948 L72.828808 -21.23684 L74.131317 -21.168287 L74.548868 -21.168287 "  stroke="#002673" fill="none" stroke-opacity="1" stroke-width="1" stroke-linecap="round" stroke-linejoin="round" stroke-miterlimit="10" />
</g>
</g>
<g clip-path="url(#cp_2)">
<g transform="matrix(4.1666667 0 0 -4.1666667 974.4075 826.77)">
<path d="M88.215858 -22.645293 L88.483838 -23.193718 L88.870228 -23.816928 L89.256619 -24.944938 L89.605616 -25.611772 L90.110416 -26.116573 L90.577824 -26.390785 L91.319443 -26.390785 L91.78685 -26.278607 L92.135848 -26.085412 L93.818514 -25.113204 L94.871739 -24.140997 L95.457556 -23.835625 L96.504548 -23.873017 L96.89717 -23.798232 L97.439363 -23.411842 L98.299393 -23.330825 L99.196815 -23.062844 L99.583205 -22.869649 L100.17525 -21.704246 L100.52425 -21.11843 L101.80806 -20.769433 L102.23808 -20.769433 L102.62447 -20.925235 L103.05448 -21.006252 L103.6403 -20.813057 L104.41931 -20.813057 L104.9615 -21.243072 L105.58471 -21.479892 L105.89632 -21.679319 L106.40112 -21.835121 L107.02433 -22.651526 L107.45434 -22.925739 L107.64754 -22.850953 L107.84074 -22.458331 L108.19596 -22.109334 L109.56079 -21.062341 L109.99081 -20.987555 L110.19024 -21.024948 L110.57039 -21.105965 L111.58623 -21.105965 L112.52104 -21.186982 L112.98845 -21.112197 L113.26266 -20.682182 L114.50908 -19.479388 L115.01388 -19.441995 L115.5623 -19.516781 L116.14189 -19.7536 L116.69031 -20.183615 L117.04866 -20.660371 L117.5815 -21.199447 L118.24211 -21.666855 L118.7843 -22.290064 L119.68172 -22.414707 L120.03072 -22.72631 L120.4545 -23.46793 L120.76611 -23.816928 L121.31453 -23.897945 L121.70092 -23.70475 L122.64197 -23.006756 L123.26518 -23.006756 L124.50536 -23.474162 L125.94498 -23.792 L126.21919 -23.710983 L126.45601 -23.480395 L126.4934 -22.857185 L126.64921 -22.508188 L126.84863 -22.314993 L127.19763 -22.121797 L128.14803 -22.42717 L129.02987 -22.433402 L129.18567 -22.433402 L129.65308 -22.047012 L129.80888 -21.660622 L129.6967 -20.875377 L129.65931 -20.058974 L129.8899 -19.479388 L130.43832 -18.812554 L131.26096 -18.114558 L131.72837 -17.647151 L132.03997 -17.104958 L132.03997 -16.170144 L131.69097 -15.62172 L131.65358 -15.391132 L131.96519 -14.686905 L132.43882 -14.418924 L133.06203 -14.418924 L133.91583 -14.967349 L135.93503 -15.908396 L136.91347 -15.995645 L137.06927 -15.908396 L137.38088 -15.833611 L137.88568 -15.247793 L138.58991 -14.157177 L138.98253 -13.265987 L139.13833 -12.486974 L139.02615 -11.433749 L138.71455 -10.729522 L138.44657 -9.9879023 L138.44657 -9.208891 L138.75817 -8.0808809 L138.87658 -7.2644759 L138.84542 -6.522856 L138.33751 -5.8809503 "  stroke="#002673" fill="none" stroke-opacity="1" stroke-width="1" stroke-linecap="round" stroke-linejoin="round" stroke-miterlimit="10" />
</g>
</g>
<g clip-path="url(#cp_2)">
<g transform="matrix(4.1666667 0 0 -4.1666667 974.4075 826.77)">
<path d="M16.465715 -27.849096 L18.553467 -27.088779 L19.544372 -26.490498 L20.136421 -26.19759 L21.077468 -25.948305 L22.816223 -25.019723 L23.40204 -24.764207 L23.956697 -24.620869 L24.424104 -24.396513 L25.340222 -23.760839 L26.530553 -23.012988 L27.078977 -22.757471 L28.175827 -22.551812 L29.266444 -22.576741 L31.354197 -23.181254 L32.014799 -23.156325 L32.999471 -22.832256 L33.8595 -22.620366 L35.423757 -22.582973 L36.046966 -22.364849 L36.601624 -22.071941 L37.12512 -21.579605 L37.567598 -20.85045 L37.77949 -20.389274 L38.035006 -19.417067 L38.37154 -18.613127 L38.976053 -17.771793 L39.194177 -16.917996 L39.256497 -16.101591 "  stroke="#002673" fill="none" stroke-opacity="1" stroke-width="1" stroke-linecap="round" stroke-linejoin="round" stroke-miterlimit="10" />
</g>
</g>
<g clip-path="url(#cp_2)">
<g transform="matrix(4.1666667 0 0 -4.1666667 974.4075 826.77)">
<path d="M-0.82835728 -69.853435 L-0.9156064 -69.498206 L-0.79247339 -68.797623 L-0.7348751 -68.46991 L-0.64762598 -66.606513 L-0.336021 -65.17313 L-0.30486027 -64.082512 L-0.44196701 -63.216251 L-0.77226774 -62.505792 L-0.90937448 -61.845189 L-0.69125054 -61.066178 L-0.40457437 -60.337022 L0.16877912 -59.377279 L1.2967892 -57.850415 L1.7579636 -56.809654 L1.9262311 -56.149053 L1.8950703 -55.912233 L1.8763734 -55.25163 L1.6457857 -53.606356 L1.1285217 -52.584292 L1.2220039 -51.961082 L1.1970751 -51.412658 L0.81691674 -50.976411 L0.4803841 -50.658574 L0.33081352 -50.25972 L0.31834969 -49.405922 L0.093993828 -48.851265 L-0.69125054 -47.741952 L-0.95299904 -47.187296 L-1.6073686 -45.498397 L-1.7444753 -44.962436 L-2.0311515 -43.846891 L-1.7133146 -43.740945 L-1.5450483 -43.080343 L-1.4889587 -42.53815 L-1.3580851 -42.070743 L-0.96546288 -41.771602 L-0.22384307 -41.790298 L0.32458161 -41.727978 L0.52400866 -41.534783 L0.84807747 -40.961429 L0.94155965 -40.381845 L1.0662014 -40.151257 L1.5398408 -39.852116 L2.7177074 -39.490655 L3.2349713 -39.116728 L3.876877 -38.393805 L3.9890549 -37.147385 L4.1510893 -36.916797 L4.9737264 -36.785924 L6.2326101 -36.349677 "  stroke="#002673" fill="none" stroke-opacity="1" stroke-width="1" stroke-linecap="round" stroke-linejoin="round" stroke-miterlimit="10" />
</g>
</g>
<g clip-path="url(#cp_2)">
<g transform="matrix(4.1666667 0 0 -4.1666667 974.4075 826.77)">
<path d="M158.26314 -171.23187 L158.58871 -169.9347 L157.97173 -168.60726 L158.69465 -164.94902 L158.70089 -163.23519 L158.93771 -162.5372 L160.34616 -161.06019 L161.6736 -160.21262 L162.30304 -159.35883 L162.62088 -158.19342 L163.08828 -157.72602 L165.6746 -154.54765 L165.91142 -153.84342 L165.45025 -153.30123 L165.37546 -152.83382 L166.23549 -151.98002 L167.17031 -151.36304 L168.18614 -151.13246 L169.89997 -151.37551 L171.14639 -151.38174 L171.35863 -151.32231 L172.237 -151.07637 L173.79503 -150.84578 L176.21931 -149.06963 L177.16036 -147.67364 L178.25721 -146.58303 L180.13307 -145.11225 L180.91208 -144.80688 L182.08372 -145.12471 L182.55112 -144.96891 L183.33637 -143.88453 L183.65421 -142.71912 L183.57942 -141.08008 L183.27405 -139.83366 L183.27405 -139.54075 L183.28028 -139.13567 L183.8287 -138.51246 L184.6825 -138.43767 L185.14991 -138.67449 L185.61732 -138.75551 L186.40256 -138.29433 L187.73 -136.81733 L188.59003 -136.11933 L189.91123 -136.67399 L190.61546 -136.82979 L191.62506 -136.36862 L192.2545 -136.29383 L192.87148 -136.76747 L193.02105 -138.16969 L193.25164 -138.94871 L194.02442 -139.73395 L196.9722 -142.15824 L197.34612 -142.75028 L198.05658 -143.87829 L199.91998 -144.58875 L201.24119 -145.92242 L201.46554 -146.93825 L202.47514 -148.02887 L202.93632 -148.96992 L203.79011 -149.82995 L203.93968 -151.15115 L204.53532 -152.0884 M215.95382 -147.36481 L215.95517 -147.16261 L216.1172 -145.6856 L216.43504 -145.2182 L217.60044 -145.29921 L217.45087 -144.28961 L217.9993 -143.82221 L218.4667 -143.67264 "  stroke="#002673" fill="none" stroke-opacity="1" stroke-width="1" stroke-linecap="round" stroke-linejoin="round" stroke-miterlimit="10" />
</g>
</g>
</g>
<!-- Begin_Label-->
<clipPath id="cp_3">
<path d="M1948.815 1653.54 L1948.815 0 L0 4.5474735e-13 L0 1653.54 Z " />
</clipPath>
<g clip-path="url(#cp_3)">
<g id="EmbdFile_1" transform="matrix(1 0 0 1 0 4.5474735e-13)">
<g>
<g color-interpolation="linearRGB" transform="scale(1,1)">
</g>
</g>
</g>
</g>
<!-- End_Label-->
</g>
</g>
</svg>
